<?xml version="1.0" encoding="UTF-8" standalone="no"?>
<!DOCTYPE svg PUBLIC "-//W3C//DTD SVG 1.1//EN" "http://www.w3.org/Graphics/SVG/1.1/DTD/svg11.dtd">
<svg width="100%" height="100%" viewBox="0 0 148 133" version="1.1" xmlns="http://www.w3.org/2000/svg" xmlns:xlink="http://www.w3.org/1999/xlink" xml:space="preserve" xmlns:serif="http://www.serif.com/" style="fill-rule:evenodd;clip-rule:evenodd;stroke-linejoin:round;stroke-miterlimit:2;">
    <g transform="matrix(1,0,0,1,-1006.688652,-841.301795)">
        <g transform="matrix(1,0,0,1,-74.626636,48.008218)">
            <path d="M1205.693,823.533C1132.38,812.016 1100.459,870.575 1097.726,875.399C1095.547,879.245 1084.053,899.187 1084.181,924.061C1084.184,924.637 1084.21,924.642 1084.186,924.682C1083.732,925.438 1083.478,925.229 1083.026,925.981C1082.657,925.532 1082.094,925.267 1081.725,924.818C1081.657,924.735 1081.484,921.879 1081.469,921.623C1079.492,888.963 1096.645,849.59 1131.37,828.756C1161.541,810.654 1191.849,813.576 1206.794,816.353C1203.353,812.658 1199.3,807.361 1192.811,799.206C1192.367,798.648 1191.229,797.226 1191.229,797.226C1191.053,796.637 1190.648,796.07 1190.703,795.457C1190.704,795.44 1191.537,793.83 1191.545,793.828C1192.124,793.649 1192.68,793.245 1193.283,793.298C1194.453,793.403 1194.432,793.559 1195.205,794.442C1212.928,814.687 1213.233,816.766 1225.687,820.045C1225.756,820.063 1227.594,820.31 1228.385,821.912C1229.239,823.642 1228.425,826.435 1225.483,826.617C1222.855,826.779 1207.21,826.364 1188.731,840.102C1185.646,842.396 1185.689,842.452 1185.686,842.453C1185.107,842.652 1184.558,843.083 1183.947,843.046C1183.93,843.045 1182.283,842.245 1182.28,842.237C1182.079,841.659 1181.649,841.11 1181.685,840.499C1181.756,839.306 1181.962,839.352 1182.834,838.533C1185.239,836.275 1193.36,828.192 1205.693,823.533Z" style="fill:rgb(76,76,76);"/>
        </g>
    </g>
</svg>
