<svg preserveAspectRatio="none" width="100%" height="100%" overflow="visible" style="display: block;" viewBox="0 0 23.9999 18" fill="none" xmlns="http://www.w3.org/2000/svg">
<g id="Vector">
<path fill-rule="evenodd" clip-rule="evenodd" d="M11.2069 2.91442C10.7571 3.29013 10.7484 3.97459 11.1618 4.39074C12.2774 5.51356 13.2878 6.65321 14.4462 8.10538C14.8154 8.56815 15 8.79953 14.9999 9.08332C14.9999 9.36711 14.8153 9.59852 14.446 10.0613C14.3575 10.1723 14.2698 10.2815 14.1828 10.389C14.0357 10.5708 13.9544 10.7981 13.9544 11.0329V12.0087C13.9544 12.8788 14.6463 13.5841 15.4998 13.5841C16.3534 13.5841 17.0453 12.8788 17.0453 12.0087V8.8299C17.0453 8.17736 17.5642 7.64837 18.2044 7.64837C18.8445 7.64837 19.3634 8.17736 19.3634 8.8299V12.0087C19.3634 12.8788 20.0553 13.5841 20.9089 13.5841C21.7624 13.5841 22.4543 12.8788 22.4543 12.0087V8.01063C22.4543 7.81056 22.6134 7.64837 22.8097 7.64837C23.5093 7.64837 23.8591 7.64837 23.9705 7.45037C24.0819 7.25237 23.871 7.01051 23.4493 6.52681C21.2422 3.99507 19.4423 2.43672 16.4506 0.451844C15.9963 0.150405 15.7691 -0.000315056 15.497 4.94449e-07C15.2249 0.000321218 14.9983 0.151533 14.545 0.453957C13.2583 1.31236 12.1902 2.09326 11.2069 2.91442ZM16.8189 3.57477C16.8189 4.36448 16.1909 5.00468 15.4162 5.00468C14.6415 5.00468 14.0135 4.36448 14.0135 3.57477C14.0135 2.78505 14.6415 2.14486 15.4162 2.14486C16.1909 2.14486 16.8189 2.78505 16.8189 3.57477Z" fill="#005E16"/>
<path d="M8.10253 18H22.8996C23.62 18 24.1419 17.2812 23.9654 16.5469L23.8331 16.0059C23.7082 15.4957 23.2671 15.1402 22.7673 15.1402H8.23485C7.735 15.1402 7.29395 15.5035 7.16899 16.0136L7.03668 16.5546C6.85291 17.2812 7.38216 18 8.10253 18Z" fill="#005E16"/>
<path d="M7.2134 7.43566C6.99345 7.53698 6.71078 7.53698 6.14544 7.53698H1.54207C0.690408 7.53698 0 8.23384 0 9.09346C0 9.95308 0.690407 10.6499 1.54207 10.6499H6.14356C6.71067 10.6499 6.99422 10.6499 7.21474 10.7519C7.45721 10.864 7.6517 11.0603 7.76275 11.305C7.86374 11.5276 7.86374 11.8138 7.86374 12.3862C7.86374 13.4413 7.86374 13.9689 8.19439 14.1169C8.52503 14.2649 8.9067 13.9159 9.67005 13.2179C10.8461 12.1426 11.784 11.1617 12.9132 9.79328C13.1865 9.46205 13.3232 9.29644 13.3232 9.09334C13.3232 8.89024 13.1866 8.72465 12.9133 8.39345C11.7852 7.02605 10.8467 6.04585 9.67102 4.97081C8.90703 4.27223 8.52504 3.92293 8.19439 4.07092C7.86374 4.2189 7.86374 4.7468 7.86374 5.80261C7.86374 6.37324 7.86374 6.65855 7.76336 6.88055C7.65221 7.12637 7.45694 7.32347 7.2134 7.43566Z" fill="#005E16"/>
</g>
</svg>
