<svg preserveAspectRatio="none" width="100%" height="100%" overflow="visible" style="display: block;" viewBox="0 0 23 23" fill="none" xmlns="http://www.w3.org/2000/svg">
<g id="Vector">
<path d="M22.3068 10.0261L19.8503 7.34955C18.5078 5.87989 17.0657 4.50756 15.5342 3.22282L11.8744 0.147233C11.6456 -0.0474243 11.2975 -0.0474243 11.0688 0.1375L7.98581 2.59018C6.07635 4.11824 4.29617 5.7923 2.65523 7.59288L0.44741 10.0261C0.0893851 10.4251 0.377794 11.0578 0.91483 11.0578C1.60104 11.0578 2.15797 11.6028 2.15797 12.2744V16.4303C2.15797 17.4133 2.84418 18.3185 3.82875 18.4742C5.09178 18.6786 6.1758 17.7248 6.1758 16.5374V12.2647C6.1758 11.5931 6.73273 11.048 7.41894 11.048H8.12505C8.81126 11.048 9.36819 11.5931 9.36819 12.2647V16.4206C9.36819 17.4036 10.0544 18.3088 11.039 18.4645C12.302 18.6689 13.386 17.7151 13.386 16.5276V12.2647C13.386 11.5931 13.9429 11.048 14.6292 11.048H15.1861C15.8723 11.048 16.4292 11.5931 16.4292 12.2647V16.4206C16.4292 17.4036 17.1154 18.3088 18.1 18.4645C19.363 18.6689 20.4471 17.7151 20.4471 16.5276V12.2647C20.4471 11.5931 21.004 11.048 21.6902 11.048H21.8394C22.3864 11.048 22.6748 10.4154 22.3068 10.0261ZM11.3771 7.17436C10.4522 7.17436 9.69637 6.43466 9.69637 5.52951C9.69637 4.62435 10.4522 3.88465 11.3771 3.88465C12.302 3.88465 13.0578 4.62435 13.0578 5.52951C13.0578 6.43466 12.302 7.17436 11.3771 7.17436Z" fill="var(--fill-0, #5B289B)"/>
<path d="M21.5113 23H1.49173C0.51711 23 -0.198939 22.0948 0.0496889 21.18L0.228701 20.4987C0.397768 19.8563 0.994476 19.3988 1.67074 19.3988H21.3323C22.0085 19.3988 22.6052 19.8466 22.7743 20.4889L22.9533 21.1702C23.192 22.0948 22.4859 23 21.5113 23Z" fill="var(--fill-0, #5B289B)"/>
</g>
</svg>
