<svg preserveAspectRatio="none" width="100%" height="100%" overflow="visible" style="display: block;" viewBox="0 0 20.0076 20.0011" fill="none" xmlns="http://www.w3.org/2000/svg">
<path id="Vector" d="M9.88239 1.00037C12.0104 0.99835 13.5059 0.999374 14.6812 1.16053C15.8159 1.31616 16.5649 1.61147 17.2154 2.15271C17.4221 2.32466 17.6962 2.59903 17.8677 2.80603C18.41 3.46049 18.7023 4.20176 18.855 5.31287C19.0136 6.46646 19.0116 7.92992 19.0054 10.017C18.9994 12.0701 18.9931 13.513 18.8384 14.6498C18.689 15.7483 18.4099 16.4757 17.9039 17.1107C17.6978 17.3692 17.3629 17.7039 17.1041 17.9096C16.4641 18.418 15.7482 18.6944 14.6841 18.8412C13.5791 18.9936 12.1825 18.9975 10.189 19.0004C8.09955 19.0034 6.62738 19.0036 5.47028 18.8549C4.34921 18.7107 3.61362 18.4356 2.98102 17.9388C2.71327 17.7286 2.39418 17.4136 2.18024 17.1488C1.67739 16.5265 1.39099 15.7856 1.23005 14.6381C1.06438 13.4567 1.04295 11.946 1.01618 9.80701C0.991394 7.82683 0.976227 6.44333 1.11677 5.34412C1.25179 4.28813 1.52359 3.56851 2.03864 2.91346C2.238 2.65993 2.57493 2.31837 2.82575 2.1156C3.46955 1.59522 4.19684 1.3118 5.28473 1.1615C6.41349 1.00559 7.84335 1.00231 9.88239 1.00037Z" stroke="var(--stroke-0, #8B9DB1)" stroke-width="2"/>
</svg>
