<svg preserveAspectRatio="none" width="100%" height="100%" overflow="visible" style="display: block;" viewBox="0 0 19.997 20" fill="none" xmlns="http://www.w3.org/2000/svg">
<path id="Vector" fill-rule="evenodd" clip-rule="evenodd" d="M1.43519 1.54556C-0.00731925 3.00848 -0.00467547 4.94737 0.000612037 8.82517C0.00150974 9.48353 0.0099994 10.1369 0.0246828 10.7936C0.118407 14.9854 0.165269 17.0814 1.60264 18.5031C3.04002 19.9249 5.07358 19.9482 9.1407 19.9947C9.79165 20.0021 10.4374 20.0017 11.0869 19.9935C15.04 19.9432 17.0165 19.918 18.4536 18.4856C19.8908 17.0532 19.9227 15.0645 19.9865 11.0869C19.9983 10.3525 20.0002 9.62569 19.9921 8.89336C19.9481 4.9391 19.9261 2.96196 18.4864 1.52081C17.0468 0.0796637 15.0488 0.0553381 11.0528 0.00668687C10.3052 -0.00241479 9.56433 -0.00222738 8.81651 0.00726317C4.8573 0.0575092 2.87769 0.0826322 1.43519 1.54556ZM14.2303 6.36973C14.7047 5.86819 15.508 5.83293 16.0246 6.29097C16.5411 6.74901 16.5752 7.52689 16.1008 8.02843L10.5949 13.8493C10.4875 13.9628 10.3676 14.0584 10.239 14.1359C10.2237 14.1451 10.2085 14.1543 10.1932 14.1635C10.139 14.1963 10.0847 14.2291 10.03 14.261C9.51683 14.5611 8.83831 14.5178 8.36987 14.1023L8.22443 13.9734L8.20258 13.9543L5.10932 11.211C4.58162 10.743 4.54674 9.9483 5.0314 9.43591C5.5013 8.93913 6.29082 8.88788 6.82229 9.31965L8.23385 10.4664C8.9105 11.0161 9.89648 10.9515 10.4956 10.3181L14.2303 6.36973Z" fill="var(--fill-0, #1D86FF)"/>
</svg>
