<svg preserveAspectRatio="none" width="100%" height="100%" overflow="visible" style="display: block;" viewBox="0 0 16 15.9999" fill="none" xmlns="http://www.w3.org/2000/svg">
<g id="Icon/Checkmark">
<path id="Vector" fill-rule="evenodd" clip-rule="evenodd" d="M7.89675 3.67149e-06C3.56043 0.00412068 -0.0535925 3.51744 0.000601692 7.85342C0.0563377 12.3128 3.68444 16.0064 8.14412 15.9999C12.4918 15.9935 15.9873 12.3612 16 8.01358C16.0129 3.59204 12.3183 -0.00419426 7.89675 3.67149e-06ZM10.4643 5.60469C10.7859 5.26487 11.3305 5.24098 11.6806 5.55133C12.0308 5.86168 12.054 6.38875 11.7324 6.72857L7.99981 10.6726C7.91904 10.758 7.82772 10.8284 7.72958 10.8837C7.70127 10.8996 7.67347 10.9165 7.64602 10.9339C7.29503 11.1564 6.81795 11.1335 6.49144 10.8441L6.3902 10.7544L6.37805 10.7438L4.28108 8.88502C3.92334 8.56795 3.8997 8.02947 4.22826 7.6823C4.54681 7.3457 5.08203 7.31097 5.44232 7.60352L6.73235 8.65102C7.00315 8.87091 7.39774 8.84505 7.6375 8.59171L10.4643 5.60469Z" fill="var(--fill-0, #1F589A)"/>
</g>
</svg>
