<svg preserveAspectRatio="none" width="100%" height="100%" overflow="visible" style="display: block;" viewBox="0 0 20 19.9999" fill="none" xmlns="http://www.w3.org/2000/svg">
<path id="Subtract" fill-rule="evenodd" clip-rule="evenodd" d="M9.87095 4.58736e-06C4.44775 0.00515101 -0.0671216 4.39905 0.000755517 9.81908C0.0705275 15.3904 4.60547 20.008 10.1801 19.9999C15.6147 19.9919 19.9839 15.451 20 10.0192C20.0163 4.49223 15.4007 -0.00524295 9.87095 4.58736e-06ZM9.57258 5.83329C8.88699 5.83329 8.33121 6.38879 8.33121 7.07403C8.33121 7.53427 7.95792 7.90737 7.49745 7.90737C7.03698 7.90737 6.6637 7.53427 6.6637 7.07403C6.6637 5.46832 7.96605 4.16663 9.57258 4.16663H9.99872C11.8406 4.16663 13.3337 5.65901 13.3337 7.49996V7.85999C13.3337 9.48107 12.0358 10.7991 10.4219 10.8326V11.6851C10.4219 12.1454 10.0486 12.5185 9.58815 12.5185C9.12768 12.5185 8.75439 12.1454 8.75439 11.6851V10.7703C8.75439 9.88464 9.47277 9.16663 10.3589 9.16663C11.0809 9.16663 11.6662 8.58163 11.6662 7.85999V7.49996C11.6662 6.57949 10.9197 5.83329 9.99872 5.83329H9.57258ZM10.4156 14.1666C10.4156 14.6269 10.0423 15 9.58184 15C9.12137 15 8.74808 14.6269 8.74808 14.1666C8.74808 13.7064 9.12137 13.3333 9.58184 13.3333C10.0423 13.3333 10.4156 13.7064 10.4156 14.1666Z" fill="var(--fill-0, #252E39)"/>
</svg>
