<svg preserveAspectRatio="none" width="100%" height="100%" overflow="visible" style="display: block;" viewBox="0 0 16 16" fill="none" xmlns="http://www.w3.org/2000/svg">
<path id="Vector" fill-rule="evenodd" clip-rule="evenodd" d="M8 16C12.4183 16 16 12.4183 16 8C16 3.58172 12.4183 0 8 0C3.58172 0 0 3.58172 0 8C0 12.4183 3.58172 16 8 16ZM8.66667 4.66669C8.66667 5.03488 8.36819 5.33336 8 5.33336C7.63181 5.33336 7.33333 5.03488 7.33333 4.66669C7.33333 4.2985 7.63181 4.00002 8 4.00002C8.36819 4.00002 8.66667 4.2985 8.66667 4.66669ZM7.33333 7.33336C7.33333 6.96517 7.63181 6.66669 8 6.66669C8.36819 6.66669 8.66667 6.96517 8.66667 7.33336V10.6667C8.66667 11.0349 8.36819 11.3334 8 11.3334C7.63181 11.3334 7.33333 11.0349 7.33333 10.6667V7.33336Z" fill="var(--fill-0, #8EB0D4)"/>
</svg>
