<svg preserveAspectRatio="xMidYMid meet" width="100%" height="100%" overflow="visible" style="display: block;" viewBox="0 0 16 24" fill="none" xmlns="http://www.w3.org/2000/svg">
<path id="Subtract" d="M8 0C8.43713 0 8.97199 0.0175369 9.55273 0.046875C12.3412 0.187746 13.7356 0.258755 14.7051 1.23535C15.6746 2.21214 15.7361 3.64416 15.8594 6.50781C15.938 8.33357 16 10.3065 16 12.0059C16 13.6987 15.9385 15.6626 15.8604 17.4824C15.737 20.3539 15.6755 21.7895 14.7051 22.7666C13.7347 23.7437 12.3331 23.8134 9.53027 23.9531C8.95299 23.9819 8.4253 24 8 24C7.55613 24 7.00047 23.9812 6.39355 23.9502C3.62123 23.8084 2.23486 23.7368 1.26562 22.7578C0.29663 21.7789 0.238713 20.3727 0.123047 17.5605C0.0528137 15.853 3.38746e-06 13.9292 0 12.0059C0 10.0747 0.0533671 8.14336 0.124023 6.43066C0.239745 3.62559 0.297246 2.2228 1.26562 1.24414C2.23401 0.265479 3.61351 0.193763 6.37207 0.0507812C6.98191 0.0191718 7.54401 1.02501e-08 8 0ZM7.24023 2C4.98463 2 3.85661 2.00001 3.08691 2.72266C2.3172 3.4457 2.2499 4.52203 2.11523 6.67383C2.0481 7.74652 2 8.89656 2 10C2 11.1034 2.0481 12.2535 2.11523 13.3262C2.2499 15.478 2.3172 16.5543 3.08691 17.2773C3.85661 18 4.98463 18 7.24023 18H8.69336C10.9781 18 12.1205 17.9998 12.8896 17.2793C13.6586 16.5588 13.7312 15.4585 13.875 13.2578C13.9477 12.1456 14 10.9952 14 10C14 9.00479 13.9477 7.85439 13.875 6.74219C13.7312 4.54153 13.6586 3.44118 12.8896 2.7207C12.1205 2.00022 10.9781 2 8.69336 2H7.24023Z" fill="var(--fill-0, #78A0CA)" fill-opacity="0.8"/>
</svg>
