<svg preserveAspectRatio="xMidYMid meet" width="100%" height="100%" overflow="visible" style="display: block;" viewBox="0 0 24 18" fill="none" xmlns="http://www.w3.org/2000/svg">
<path id="Subtract" d="M12 0C14.4451 1.95754e-06 17.6189 0.0619582 20.0537 0.120117C22.1466 0.17011 23.8356 1.83626 23.9014 3.92871C23.953 5.57312 24 7.47608 24 9C24 10.5239 23.953 12.4269 23.9014 14.0713C23.8356 16.1638 22.1466 17.8299 20.0537 17.8799C17.6189 17.938 14.4451 18 12 18C9.55497 18 6.3811 17.938 3.94629 17.8799C1.85332 17.8299 0.163342 16.1638 0.0976562 14.0713C0.0460381 12.4269 3.8768e-09 10.5239 0 9C5.58029e-07 7.47609 0.0460377 5.57311 0.0976562 3.92871C0.163342 1.83619 1.85333 0.170111 3.94629 0.120117C6.3811 0.0619589 9.55497 1.39305e-08 12 0ZM7.5 9.10059C5.567 9.10059 4 10.3171 4 11.8174C4.00009 12.0534 4.03845 12.2826 4.11133 12.501C4.22056 12.828 4.55851 13.001 4.90332 13.001H10.0967C10.4415 13.001 10.7794 12.828 10.8887 12.501C10.9616 12.2826 10.9999 12.0534 11 11.8174C11 10.3171 9.433 9.10059 7.5 9.10059ZM17.5 10C16.992 10 16.3399 10.0448 15.8291 10.0879C15.3566 10.1278 15 10.5258 15 11C15 11.4742 15.3566 11.8722 15.8291 11.9121C16.3399 11.9552 16.9921 12 17.5 12C18.0079 12 18.6601 11.9552 19.1709 11.9121C19.6434 11.8722 20 11.4742 20 11C20 10.5258 19.6434 10.1278 19.1709 10.0879C18.6601 10.0448 18.008 10 17.5 10ZM7.5 5C6.67157 5 6 5.67157 6 6.5C6 7.32843 6.67157 8 7.5 8C8.32843 8 9 7.32843 9 6.5C9 5.67157 8.32843 5 7.5 5ZM16.5 5C15.6757 5 14.5762 5.06033 13.8311 5.1084C13.3616 5.13868 13 5.52961 13 6C13 6.47041 13.3616 6.86132 13.8311 6.8916C14.5762 6.93966 15.6757 7 16.5 7C17.3243 7 18.4238 6.93966 19.1689 6.8916C19.6384 6.86132 20 6.47041 20 6C20 5.52961 19.6384 5.13868 19.1689 5.1084C18.4238 5.06033 17.3243 5 16.5 5Z" fill="var(--fill-0, #78A0CA)" fill-opacity="0.8"/>
</svg>
