<svg preserveAspectRatio="xMidYMid meet" width="100%" height="100%" overflow="visible" style="display: block;" viewBox="0 0 24 18" fill="none" xmlns="http://www.w3.org/2000/svg">
<path id="Vector" fill-rule="evenodd" clip-rule="evenodd" d="M0.0980646 3.92865C0.16375 1.83612 1.85316 0.170301 3.94612 0.120307C6.38095 0.0621479 9.55479 0 11.9999 0C14.445 0 17.619 0.0621507 20.0538 0.120311C22.1467 0.170304 23.8361 1.83603 23.9018 3.92848C23.9535 5.57295 24 7.47603 24 9.00003C24 10.524 23.9535 12.4271 23.9018 14.0715C23.8361 16.164 22.1467 17.8297 20.0538 17.8797C17.6189 17.9379 14.445 18 11.9999 18C9.5548 18 6.38097 17.9379 3.94614 17.8797C1.85318 17.8297 0.16375 16.1639 0.0980637 14.0714C0.0464443 12.427 0 10.524 0 9.00003C0 7.47608 0.0464448 5.57308 0.0980646 3.92865ZM9 6.5C9 7.32843 8.32843 8 7.5 8C6.67157 8 6 7.32843 6 6.5C6 5.67157 6.67157 5 7.5 5C8.32843 5 9 5.67157 9 6.5ZM10.8883 12.5001C10.779 12.8273 10.4418 13 10.0968 13H4.90315C4.55825 13 4.221 12.8273 4.11174 12.5001C4.03881 12.2817 4 12.0527 4 11.8166C4 10.3163 5.567 9.1001 7.5 9.1001C9.433 9.1001 11 10.3163 11 11.8166C11 12.0527 10.9612 12.2817 10.8883 12.5001ZM13 6.00001C13 5.52961 13.3613 5.13872 13.8307 5.10844C14.5758 5.06036 15.6756 5 16.5 5C17.3244 5 18.4242 5.06036 19.1693 5.10844C19.6387 5.13872 20 5.52961 20 6.00001C20 6.47042 19.6387 6.86131 19.1692 6.89159C18.4241 6.93965 17.3244 7 16.5 7C15.6756 7 14.5759 6.93965 13.8308 6.89159C13.3613 6.86131 13 6.47042 13 6.00001ZM15.8292 10.0878C15.3566 10.1276 15 10.5258 15 11C15 11.4743 15.3566 11.8724 15.8292 11.9123C16.34 11.9553 16.9921 12 17.5 12C18.0079 12 18.66 11.9553 19.1708 11.9123C19.6434 11.8724 20 11.4743 20 11C20 10.5258 19.6434 10.1276 19.1708 10.0878C18.66 10.0447 18.0079 10 17.5 10C16.9921 10 16.34 10.0447 15.8292 10.0878Z" fill="var(--fill-0, #1F589A)"/>
</svg>
