<svg preserveAspectRatio="none" width="100%" height="100%" overflow="visible" style="display: block;" viewBox="0 0 23 24" fill="none" xmlns="http://www.w3.org/2000/svg">
<g id="Vector">
<path d="M6.38263 9.75221C6.16124 12.2284 6.16413 14.0933 6.42648 16.2177C6.55278 17.2404 6.61593 17.7518 6.86256 18.3246C7.05782 18.7781 7.40572 19.2948 7.74917 19.6415C8.18296 20.0793 8.70362 20.3604 9.74496 20.9227L13.2343 22.8065C14.51 23.4953 15.1479 23.8397 15.8002 23.9505C16.9494 24.1457 18.289 23.7529 19.1685 22.9628C19.6677 22.5143 19.99 21.9549 20.6346 20.8362C21.449 19.4229 22.1337 18.0094 22.789 16.272C23.3884 14.6828 22.6648 12.9118 21.2032 12.1227C20.3214 10.9235 19.7099 10.554 18.315 10.5633C17.5523 9.37342 16.8212 8.89018 15.4267 9.00398L17.3102 5.2678C17.7263 4.44243 17.4171 3.42426 16.6195 2.99365C15.822 2.56305 14.8381 2.88307 14.422 3.70844L10.477 11.5337C10.361 11.7638 10.0272 11.6985 10.0003 11.4405L9.82562 9.75937C9.71516 8.6965 8.73848 7.96744 7.72903 8.19433C7.00091 8.35799 6.45127 8.98441 6.38263 9.75221Z" fill="var(--fill-0, #8EB0D4)"/>
<path d="M8.19868 5.62293C8.19868 6.07786 8.72672 6.30967 9.04281 5.9935L11.5816 3.45408C11.7834 3.25226 11.7843 2.91784 11.5836 2.71488L9.04475 0.147781C8.72939 -0.171095 8.19868 0.0601294 8.19868 0.516408V1.54186C8.19868 1.82612 7.97628 2.05671 7.70159 2.05724L1.02809 2.07012C0.45923 2.07122 -0.00105888 2.54933 1.82958e-06 3.13802C0.00106254 3.7267 0.463071 4.20304 1.03193 4.20194L7.69974 4.18907C7.97515 4.18854 8.19868 4.41944 8.19868 4.70445V5.62293Z" fill="var(--fill-0, #8EB0D4)"/>
</g>
</svg>
