<svg preserveAspectRatio="none" width="100%" height="100%" overflow="visible" style="display: block;" viewBox="0 0 16 16" fill="none" xmlns="http://www.w3.org/2000/svg">
<g id="Star">
<path id="Vector" d="M7.26541 1.42229C7.34029 1.2938 7.44755 1.18719 7.57649 1.11309C7.70543 1.03899 7.85154 1 8.00025 1C8.14897 1 8.29508 1.03899 8.42402 1.11309C8.55296 1.18719 8.66022 1.2938 8.7351 1.42229L10.6368 4.68688L14.3301 5.48704C14.4754 5.51861 14.6098 5.58771 14.7201 5.68745C14.8303 5.78718 14.9125 5.91408 14.9584 6.05547C15.0043 6.19687 15.0124 6.34783 14.9818 6.49331C14.9512 6.63879 14.8829 6.77371 14.7839 6.8846L12.2664 9.70217L12.6474 13.4614C12.6625 13.6095 12.6384 13.7588 12.5777 13.8947C12.5169 14.0305 12.4216 14.148 12.3012 14.2354C12.1808 14.3229 12.0396 14.3772 11.8917 14.393C11.7437 14.4089 11.5942 14.3856 11.4581 14.3255L8.00025 12.8014L4.54242 14.3255C4.40628 14.3856 4.25678 14.4089 4.10883 14.393C3.96089 14.3772 3.81968 14.3229 3.69931 14.2354C3.57893 14.148 3.48361 14.0305 3.42285 13.8947C3.3621 13.7588 3.33803 13.6095 3.35307 13.4614L3.73409 9.70217L1.21658 6.88528C1.1174 6.77439 1.04904 6.63943 1.01832 6.49386C0.987608 6.34829 0.995615 6.19721 1.04154 6.0557C1.08747 5.91419 1.16972 5.78721 1.28007 5.68742C1.39042 5.58764 1.52502 5.51855 1.67042 5.48704L5.36367 4.68688L7.26541 1.42229Z" fill="var(--fill-0, #B0BECF)"/>
</g>
</svg>
