<svg preserveAspectRatio="none" width="100%" height="100%" overflow="visible" style="display: block;" viewBox="0 0 24 24" fill="none" xmlns="http://www.w3.org/2000/svg">
<g id="Frame 1171275763">
<g id="Union">
<path d="M12.8828 3.25499L12.3084 6.19512L15.4482 9.97871C16.4411 11.1754 16.1997 13.2268 14.7793 14.4235L9.89512 18.5377L9.4728 20.6994C9.24722 21.8579 10.4761 22.4414 11.385 21.6064L21.484 12.324C22.0401 11.814 22.166 11.0016 21.7673 10.5142L15.0784 2.35218C14.4528 1.58925 13.0992 2.14591 12.8828 3.25499Z" fill="var(--fill-0, #78A0CA)" fill-opacity="0.7"/>
<path d="M6.37617 2.55724C5.75712 2.67874 5.13938 3.20714 5.00429 3.96302L2.02052 20.6685C1.93789 21.1375 2.11101 21.5049 2.42841 21.6631C2.82581 21.8623 3.36354 21.7677 3.84095 21.365L13.755 13.0137C14.3556 12.5065 14.6284 11.6786 14.2087 11.1728L7.27852 2.82003C7.049 2.54452 6.70668 2.49083 6.37617 2.55724Z" fill="var(--fill-0, #78A0CA)" fill-opacity="0.7"/>
</g>
</g>
</svg>
