<svg preserveAspectRatio="none" width="100%" height="100%" overflow="visible" style="display: block;" viewBox="0 0 20 22" fill="none" xmlns="http://www.w3.org/2000/svg">
<g id="Vector">
<path d="M14.3789 4.4736C14.3789 6.9443 12.4167 8.9472 9.99623 8.9472C7.57574 8.9472 5.61355 6.9443 5.61355 4.4736C5.61355 2.0029 7.57574 0 9.99623 0C12.4167 0 14.3789 2.0029 14.3789 4.4736Z" fill="var(--fill-0, #1F589A)"/>
<path d="M19.444 16.8822C19.6492 17.3877 19.8146 17.9077 19.9393 18.4373C20.2666 19.8271 19.2283 21.0805 17.8464 21.3115C12.3143 22.2365 8.24306 22.2311 2.1919 21.2852C0.789705 21.066 -0.274228 19.8033 0.0627968 18.3968C0.186338 17.8812 0.348506 17.3748 0.548409 16.8822C1.06233 15.6157 1.81559 14.465 2.76518 13.4957C3.71477 12.5264 4.84211 11.7575 6.08281 11.233C7.32352 10.7084 8.6533 10.4384 9.99623 10.4384C11.3392 10.4384 12.6689 10.7084 13.9096 11.233C15.1503 11.7575 16.2777 12.5264 17.2273 13.4957C18.1769 14.465 18.9301 15.6157 19.444 16.8822Z" fill="var(--fill-0, #1F589A)"/>
</g>
</svg>
