<svg preserveAspectRatio="none" width="100%" height="100%" overflow="visible" style="display: block;" viewBox="0 0 24.0001 24" fill="none" xmlns="http://www.w3.org/2000/svg">
<g id="video-kyc">
<path id="Vector" fill-rule="evenodd" clip-rule="evenodd" d="M17.508 8.34543L22.3346 5.51943C23.2513 4.9842 24.0001 5.42413 24.0001 6.50231V17.5028C24.0001 18.5759 23.249 19.016 22.3346 18.4806L17.508 15.6546V16.5665C17.508 17.3445 17.2046 18.0906 16.6644 18.6407C16.1243 19.1908 15.3917 19.5 14.628 19.5H2.88C2.11624 19.5 1.38368 19.1908 0.843599 18.6407C0.303347 18.0906 0 17.3444 0 16.5665V7.43347C0 6.65554 0.303385 5.90938 0.843599 5.35926C1.38368 4.80915 2.11628 4.5 2.88 4.5H14.628C15.3917 4.5 16.1243 4.80915 16.6644 5.35926C17.2046 5.90938 17.508 6.65558 17.508 7.43347V8.34543ZM9.46708 14.1431C10.629 14.1431 11.5709 13.1838 11.5709 12.0003C11.5709 10.8168 10.629 9.85743 9.46708 9.85743C8.30518 9.85743 7.36328 10.8168 7.36328 12.0003C7.36328 13.1838 8.30518 14.1431 9.46708 14.1431Z" fill="var(--fill-0, #1F589A)"/>
</g>
</svg>
