<svg preserveAspectRatio="none" width="100%" height="100%" overflow="visible" style="display: block;" viewBox="0 0 24 24" fill="none" xmlns="http://www.w3.org/2000/svg">
<g id="wallet">
<g id="Vector">
<path d="M1.02513 10.2777C1.16997 6.92629 1.24238 5.25056 2.77774 3.73303C4.3131 2.2155 6.23568 2.1549 10.0808 2.0337C11.13 2.00064 12.1362 1.99182 13.1629 2.0073C17.3689 2.07068 19.4719 2.10238 21.0497 3.68554C21.0691 3.70504 21.0964 3.73284 21.1155 3.75267C21.5117 4.16405 21.8059 4.60472 22.0241 5.10153C22.3635 5.8746 22.5333 6.26113 22.262 6.67657C21.9907 7.09202 21.4797 7.09202 20.4577 7.09202H16.7122C14.2128 7.09202 12.1867 9.11817 12.1867 11.6176C12.1867 14.1169 14.2128 16.1431 16.7122 16.1431H20.3939C21.4224 16.1431 21.9367 16.1431 22.2081 16.5574C22.4796 16.9718 22.3088 17.3637 21.9674 18.1475C21.7466 18.6543 21.4507 19.0984 21.0534 19.507C21.0338 19.5271 21.0077 19.5535 20.9878 19.5733C19.4161 21.1356 17.2547 21.1709 12.9319 21.2415C12.0111 21.2566 11.103 21.2516 10.1585 21.2252C6.30989 21.1177 4.38556 21.064 2.84678 19.5619C1.30799 18.0598 1.21787 16.3302 1.03762 12.871C0.992168 11.9988 0.987776 11.1422 1.02513 10.2777Z" fill="var(--fill-0, #1F589A)"/>
<path fill-rule="evenodd" clip-rule="evenodd" d="M13.9889 11.6175C13.9889 10.1179 15.2046 8.90221 16.7042 8.90221H22.0361C22.4224 8.90221 22.7563 9.17683 22.8179 9.55815C23.081 11.1869 23.0407 12.2276 22.8138 13.6676C22.7531 14.0528 22.4176 14.3329 22.0277 14.3329H16.7042C15.2046 14.3329 13.9889 13.1172 13.9889 11.6175ZM18.0629 11.6945C18.0629 12.3273 17.5499 12.8403 16.9171 12.8403C16.2842 12.8403 15.7712 12.3273 15.7712 11.6945C15.7712 11.0617 16.2842 10.5487 16.9171 10.5487C17.5499 10.5487 18.0629 11.0617 18.0629 11.6945Z" fill="var(--fill-0, #1F589A)"/>
</g>
</g>
</svg>
