<svg preserveAspectRatio="none" width="100%" height="100%" overflow="visible" style="display: block;" viewBox="0 0 67 11.5" fill="none" xmlns="http://www.w3.org/2000/svg">
<g id="Container">
<g id="Battery">
<path id="Rectangle" d="M60.9102 0C62.1582 0 62.6111 0.130042 63.0674 0.374023C63.5237 0.618053 63.8819 0.976321 64.126 1.43262C64.37 1.88887 64.5 2.34185 64.5 3.58984V7.91016C64.5 9.15815 64.37 9.61113 64.126 10.0674C63.8819 10.5237 63.5237 10.8819 63.0674 11.126C62.6111 11.37 62.1582 11.5 60.9102 11.5H46.0898C44.8418 11.5 44.3889 11.37 43.9326 11.126C43.4763 10.8819 43.1181 10.5237 42.874 10.0674C42.63 9.61113 42.5 9.15815 42.5 7.91016V3.58984C42.5 2.34185 42.63 1.88887 42.874 1.43262C43.1181 0.976321 43.4763 0.618053 43.9326 0.374023C44.3889 0.130042 44.8418 0 46.0898 0H60.9102ZM46.0898 1C45.103 1 44.7581 1.06668 44.4043 1.25586C44.1223 1.40669 43.9067 1.62227 43.7559 1.9043C43.5667 2.25812 43.5 2.60305 43.5 3.58984V7.91016C43.5 8.89695 43.5667 9.24188 43.7559 9.5957C43.9067 9.87773 44.1223 10.0933 44.4043 10.2441C44.7581 10.4333 45.103 10.5 46.0898 10.5H60.9102C61.897 10.5 62.2419 10.4333 62.5957 10.2441C62.8777 10.0933 63.0933 9.87773 63.2441 9.5957C63.4333 9.24188 63.5 8.89695 63.5 7.91016V3.58984C63.5 2.60305 63.4333 2.25812 63.2441 1.9043C63.0933 1.62227 62.8777 1.40669 62.5957 1.25586C62.2419 1.06668 61.897 1 60.9102 1H46.0898ZM65.5 3.69043C65.5 3.69043 67 4.45386 67 5.69043C67 6.927 65.5 7.69043 65.5 7.69043V3.69043Z" fill="var(--fill-0, black)" fill-opacity="0.36"/>
<rect id="Rectangle_2" x="44.5" y="1.91699" width="18" height="7.66667" rx="1.6" fill="var(--fill-0, black)"/>
</g>
<path id="Combined Shape" d="M1.5 7.14062C1.77879 7.14062 1.91826 7.14003 2.03418 7.16309C2.51021 7.25777 2.88187 7.63042 2.97656 8.10645C2.99961 8.22236 3 8.36187 3 8.64062V9.64062C3 9.91929 2.99961 10.0589 2.97656 10.1748C2.88178 10.6506 2.51005 11.0225 2.03418 11.1172C1.91826 11.1402 1.77879 11.1406 1.5 11.1406C1.22121 11.1406 1.08174 11.1402 0.96582 11.1172C0.48995 11.0225 0.118223 10.6506 0.0234375 10.1748C0.000385105 10.0589 1.19764e-09 9.91929 0 9.64062V8.64062C0 8.36187 0.000388227 8.22236 0.0234375 8.10645C0.118125 7.63042 0.489792 7.25777 0.96582 7.16309C1.08174 7.14003 1.22121 7.14062 1.5 7.14062ZM6.30078 5.14062C6.57957 5.14062 6.71904 5.141 6.83496 5.16406C7.31087 5.25879 7.68262 5.63053 7.77734 6.10645C7.8004 6.22236 7.80078 6.36183 7.80078 6.64062V9.64062C7.80078 9.91942 7.8004 10.0589 7.77734 10.1748C7.68262 10.6507 7.31087 11.0225 6.83496 11.1172C6.71904 11.1402 6.57957 11.1406 6.30078 11.1406C6.02199 11.1406 5.88252 11.1402 5.7666 11.1172C5.29069 11.0225 4.91894 10.6507 4.82422 10.1748C4.80116 10.0589 4.80078 9.91942 4.80078 9.64062V6.64062C4.80078 6.36183 4.80116 6.22236 4.82422 6.10645C4.91894 5.63053 5.29069 5.25879 5.7666 5.16406C5.88252 5.141 6.02199 5.14062 6.30078 5.14062ZM10.9004 2.84082C11.1792 2.84082 11.3187 2.8412 11.4346 2.86426C11.9105 2.95898 12.2822 3.33073 12.377 3.80664C12.4 3.92256 12.4004 4.06203 12.4004 4.34082V9.64062C12.4004 9.91938 12.4 10.0589 12.377 10.1748C12.2823 10.6508 11.9106 11.0235 11.4346 11.1182C11.3187 11.1412 11.1792 11.1406 10.9004 11.1406C10.6216 11.1406 10.4821 11.1412 10.3662 11.1182C9.89018 11.0235 9.51852 10.6508 9.42383 10.1748C9.40078 10.0589 9.40039 9.91938 9.40039 9.64062V4.34082C9.40039 4.06203 9.40077 3.92256 9.42383 3.80664C9.51855 3.33073 9.8903 2.95898 10.3662 2.86426C10.4821 2.8412 10.6216 2.84082 10.9004 2.84082ZM15.5996 0.44043C15.8784 0.44043 16.0179 0.44081 16.1338 0.463867C16.6097 0.558591 16.9814 0.930336 17.0762 1.40625C17.0992 1.52217 17.0996 1.66164 17.0996 1.94043V9.64062C17.0996 9.91929 17.0992 10.0589 17.0762 10.1748C16.9814 10.6506 16.6097 11.0225 16.1338 11.1172C16.0179 11.1402 15.8784 11.1406 15.5996 11.1406C15.3208 11.1406 15.1813 11.1402 15.0654 11.1172C14.5896 11.0225 14.2178 10.6506 14.123 10.1748C14.1 10.0589 14.0996 9.91929 14.0996 9.64062V1.94043C14.0996 1.66164 14.1 1.52217 14.123 1.40625C14.2178 0.930336 14.5895 0.558591 15.0654 0.463867C15.1813 0.44081 15.3208 0.44043 15.5996 0.44043Z" fill="var(--fill-0, black)"/>
<path id="Wi-Fi" fill-rule="evenodd" clip-rule="evenodd" d="M29.8 2.53659C32.0344 2.53669 34.1834 3.39525 35.8028 4.9348C35.9247 5.05366 36.1196 5.05216 36.2397 4.93144L37.4054 3.75503C37.4662 3.6938 37.5001 3.61086 37.4996 3.52456C37.4991 3.43827 37.4642 3.35573 37.4027 3.29522C33.1524 -0.778093 26.447 -0.778093 22.1967 3.29522C22.1351 3.35568 22.1002 3.4382 22.0996 3.52449C22.099 3.61079 22.1329 3.69375 22.1937 3.75503L23.3597 4.93144C23.4797 5.05235 23.6747 5.05385 23.7966 4.9348C25.4162 3.39514 27.5654 2.53659 29.8 2.53659V2.53659ZM29.8 6.3644C31.0277 6.36433 32.2116 6.82064 33.1216 7.64468C33.2446 7.76163 33.4385 7.7591 33.5585 7.63897L34.7228 6.46255C34.7841 6.40084 34.8182 6.31713 34.8173 6.23015C34.8164 6.14316 34.7807 6.06016 34.7181 5.99971C31.947 3.42197 27.6555 3.42197 24.8843 5.99971C24.8217 6.06016 24.786 6.1432 24.7852 6.23022C24.7843 6.31723 24.8185 6.40093 24.8799 6.46255L26.0439 7.63897C26.1639 7.7591 26.3578 7.76163 26.4809 7.64468C27.3903 6.82119 28.5732 6.36491 29.8 6.3644V6.3644ZM32.0389 9.17128C32.1011 9.11016 32.1354 9.02606 32.1336 8.93883C32.1319 8.8516 32.0942 8.76898 32.0294 8.71046C30.7432 7.62256 28.8594 7.62256 27.5732 8.71046C27.5084 8.76893 27.4707 8.85153 27.4688 8.93876C27.467 9.02599 27.5012 9.11012 27.5634 9.17128L29.5778 11.2038C29.6368 11.2635 29.7173 11.2971 29.8013 11.2971C29.8853 11.2971 29.9658 11.2635 30.0248 11.2038L32.0389 9.17128Z" fill="var(--fill-0, black)"/>
</g>
</svg>
