<svg preserveAspectRatio="none" width="100%" height="100%" overflow="visible" style="display: block;" viewBox="0 0 122.117 24.1446" fill="none" xmlns="http://www.w3.org/2000/svg">
<g id="Group 1686552120">
<path id="Vector" d="M12.0817 4.28188L0 4.34073L20.0152 0L9.73274 19.0356L119.083 19.7577L1.14503 24.1444L12.0817 4.28188Z" fill="var(--fill-0, #CE1B22)"/>
<g id="Vector_2">
<path d="M14.6836 17.1682L21.2961 3.32258H24.7478L25.4653 17.1682H22.5566L22.5372 14.24H18.8528L17.5923 17.1682H14.6836ZM22.479 5.72714L19.8224 11.9518H22.5372L22.5178 5.72714H22.479Z" fill="#CE1B22"/>
<path d="M26.2345 17.1682L29.182 3.32258H34.0687C36.8998 3.32258 37.4234 5.39748 36.9774 7.47238C36.3762 10.3423 34.3401 11.6416 31.7029 11.6416H30.2097L29.0268 17.1682H26.2345ZM31.5284 5.37809L30.6363 9.58606H31.8774C32.9827 9.58606 33.8747 8.92675 34.185 7.51116C34.4759 6.15375 34.088 5.37809 32.6919 5.37809H31.5284Z" fill="#CE1B22"/>
<path d="M36.0961 17.1682L39.0436 3.32258H43.9303C46.7615 3.32258 47.2851 5.39748 46.8391 7.47238C46.2379 10.3423 44.2018 11.6416 41.5646 11.6416H40.0714L38.8885 17.1682H36.0961ZM41.39 5.37809L40.498 9.58606H41.7391C42.8444 9.58606 43.7364 8.92675 44.0467 7.51116C44.3376 6.15375 43.9497 5.37809 42.5535 5.37809H41.39Z" fill="#CE1B22"/>
<path d="M48.4707 17.1682L55.0832 3.32258H58.5349L59.2524 17.1682H56.3437L56.3243 14.24H52.6399L51.3794 17.1682H48.4707ZM56.2661 5.72714L53.6095 11.9518H56.3243L56.3049 5.72714H56.2661Z" fill="var(--fill-0, #0F4C8B)"/>
<path d="M70.493 7.99595H67.7006C68.1272 5.97923 67.8945 5.10661 66.6341 5.10661C65.2185 5.10661 64.598 6.52219 63.7641 10.4393C62.8721 14.6279 63.2987 15.3841 64.501 15.3841C65.5094 15.3841 66.3432 14.8606 66.9831 11.8743H69.7755C69.1356 14.8606 67.8558 17.4396 64.1908 17.4396C60.0022 17.4396 60.1185 14.4533 61.0105 10.2454C61.9025 6.0374 63.066 3.0511 67.2546 3.0511C71.2493 3.0511 70.9196 5.97923 70.493 7.99595Z" fill="var(--fill-0, #0F4C8B)"/>
<path d="M80.5206 7.99595H77.7282C78.1548 5.97923 77.9221 5.10661 76.6617 5.10661C75.2461 5.10661 74.6255 6.52219 73.7917 10.4393C72.8997 14.6279 73.3263 15.3841 74.5286 15.3841C75.5369 15.3841 76.3708 14.8606 77.0107 11.8743H79.8031C79.1632 14.8606 77.8833 17.4396 74.2183 17.4396C70.0297 17.4396 70.1461 14.4533 71.0381 10.2454C71.9301 6.0374 73.0936 3.0511 77.2822 3.0511C81.2769 3.0511 80.9472 5.97923 80.5206 7.99595Z" fill="var(--fill-0, #0F4C8B)"/>
<path d="M81.0657 10.2454C81.9577 6.0374 83.1212 3.0511 87.3098 3.0511C91.4983 3.0511 91.382 6.0374 90.49 10.2454C89.598 14.4533 88.4345 17.4396 84.2459 17.4396C80.0573 17.4396 80.1737 14.4533 81.0657 10.2454ZM83.8581 10.2454C83.063 13.9686 83.0436 15.3841 84.6919 15.3841C86.3402 15.3841 86.9025 13.9686 87.6976 10.2454C88.4732 6.54158 88.512 5.10661 86.8637 5.10661C85.2155 5.10661 84.6337 6.54158 83.8581 10.2454Z" fill="var(--fill-0, #0F4C8B)"/>
<path d="M93.0431 3.32258H95.8355L93.78 12.9796C93.4891 14.3564 93.6055 15.3841 94.9047 15.3841C96.204 15.3841 96.7469 14.3564 97.0378 12.9796L99.0933 3.32258H101.886L99.8302 12.9796C99.0739 16.5089 96.7275 17.4396 94.4587 17.4396C92.1899 17.4396 90.1926 16.6834 90.9876 12.9796L93.0431 3.32258Z" fill="var(--fill-0, #0F4C8B)"/>
<path d="M103.264 3.32258H106.483L107.841 12.8051H107.879L109.896 3.32258H112.456L109.508 17.1682H106.328L104.971 7.47238H104.932L102.876 17.1682H100.317L103.264 3.32258Z" fill="var(--fill-0, #0F4C8B)"/>
<path d="M113.274 3.32258H122.117L121.632 5.61079H118.607L116.144 17.1682H113.352L115.815 5.61079H112.79L113.274 3.32258Z" fill="var(--fill-0, #0F4C8B)"/>
</g>
</g>
</svg>
