<svg preserveAspectRatio="none" width="100%" height="100%" overflow="visible" style="display: block;" viewBox="0 0 16.4239 14.561" fill="none" xmlns="http://www.w3.org/2000/svg">
<path id="Vector" d="M11.4168 2.34648C12.7182 2.3465 13.9663 2.86373 14.8865 3.78398C15.8068 4.70424 16.324 5.95227 16.324 7.25371C16.324 8.55515 15.8068 9.80317 14.8865 10.7234C13.9663 11.6437 12.7182 12.1609 11.4168 12.1609H9.8748L10.6473 12.9334C10.8113 13.1033 10.9021 13.331 10.9002 13.5672C10.8981 13.8035 10.8036 14.03 10.6365 14.1971C10.4694 14.3642 10.2429 14.4587 10.0066 14.4607C9.77049 14.4627 9.54273 14.3719 9.37285 14.2078L9.37188 14.2068L7.10527 11.9412C6.93633 11.7722 6.8416 11.5425 6.8416 11.3035C6.84168 11.0647 6.93644 10.8357 7.10527 10.6668L9.37188 8.4002C9.54097 8.23122 9.77052 8.13644 10.0096 8.13652C10.2484 8.13666 10.4774 8.23135 10.6463 8.4002C10.8153 8.56928 10.91 8.79886 10.91 9.03789C10.9099 9.27695 10.8154 9.50661 10.6463 9.67559L9.96172 10.3582H11.4168C12.2402 10.3582 13.0299 10.0313 13.6121 9.44902C14.1943 8.86677 14.5213 8.07712 14.5213 7.25371C14.5213 6.43029 14.1944 5.64064 13.6121 5.0584C13.0299 4.47616 12.2402 4.14923 11.4168 4.14922C11.1778 4.14922 10.9481 4.05358 10.7791 3.88457C10.6104 3.71562 10.5154 3.48664 10.5154 3.24785C10.5154 3.00884 10.6101 2.77916 10.7791 2.61016C10.9481 2.44115 11.1778 2.34648 11.4168 2.34648ZM6.51641 0.100391C6.75547 0.100437 6.98505 0.195013 7.1541 0.364063L9.41973 2.63066C9.58853 2.79955 9.68328 3.02861 9.6834 3.26738C9.6834 3.50634 9.58866 3.73608 9.41973 3.90508L7.1541 6.1707C6.98512 6.3398 6.75546 6.43527 6.51641 6.43535C6.2774 6.4354 6.04777 6.33965 5.87871 6.1707C5.7099 6.00178 5.61514 5.77281 5.61504 5.53398C5.61495 5.29493 5.70973 5.06539 5.87871 4.89629L6.62676 4.14922H5.00762C4.18418 4.14922 3.39359 4.47614 2.81133 5.0584C2.22923 5.64062 1.90217 6.43041 1.90215 7.25371C1.90215 8.07701 2.22926 8.86679 2.81133 9.44902C3.39359 10.0313 4.18418 10.3582 5.00762 10.3582C5.24647 10.3583 5.47543 10.4539 5.64434 10.6229C5.81322 10.7918 5.90796 11.0207 5.90801 11.2596C5.90801 11.4986 5.81334 11.7283 5.64434 11.8973C5.47545 12.0661 5.24639 12.1608 5.00762 12.1609C3.70615 12.1609 2.45719 11.6437 1.53691 10.7234C0.616829 9.80319 0.100391 8.55503 0.100391 7.25371C0.100408 5.95238 0.616803 4.70422 1.53691 3.78398C2.45719 2.86371 3.70615 2.34648 5.00762 2.34648H6.58672L5.87871 1.63945C5.79499 1.55573 5.72871 1.45588 5.6834 1.34648C5.63813 1.23716 5.61505 1.12008 5.61504 1.00176C5.61504 0.762628 5.70962 0.533153 5.87871 0.364063C6.0478 0.19499 6.27729 0.100391 6.51641 0.100391Z" fill="var(--fill-0, #224F72)" stroke="var(--stroke-0, #224F72)" stroke-width="0.2"/>
</svg>
