<svg preserveAspectRatio="none" width="100%" height="100%" overflow="visible" style="display: block;" viewBox="0 0 18 18" fill="none" xmlns="http://www.w3.org/2000/svg">
<path id="icon/navigation/arrow_back_24px" d="M16.8449 7.81976H5.12677C4.6845 7.81976 4.46 7.28777 4.76856 6.97092L9.57902 2.03129C10.0295 1.56868 10.0295 0.809539 9.57902 0.346935C9.3632 0.124823 9.0702 0 8.76464 0C8.45909 0 8.16608 0.124823 7.95027 0.346935L0.337879 8.16375C-0.112626 8.62635 -0.112626 9.37363 0.337879 9.83624L7.95027 17.653C8.40077 18.1157 9.12851 18.1157 9.57902 17.653C10.0295 17.1904 10.0295 16.4432 9.57902 15.9806L4.76856 11.0409C4.46 10.7241 4.6845 10.1921 5.12677 10.1921H16.8449C17.4802 10.1921 18 9.65831 18 9.00592C18 8.35353 17.4802 7.81976 16.8449 7.81976Z" fill="var(--fill-0, #224F72)"/>
</svg>
