<svg preserveAspectRatio="none" width="100%" height="100%" overflow="visible" style="display: block;" viewBox="0 0 12 12" fill="none" xmlns="http://www.w3.org/2000/svg">
<path id="Vector" d="M6 0C5.47678 0 5.05263 0.424151 5.05263 0.947368V3.85263C5.05263 4.51537 4.51537 5.05263 3.85263 5.05263H0.947369C0.424151 5.05263 0 5.47678 0 6C0 6.52322 0.424151 6.94737 0.947368 6.94737H3.85263C4.51537 6.94737 5.05263 7.48463 5.05263 8.14737V11.0526C5.05263 11.5758 5.47678 12 6 12C6.52322 12 6.94737 11.5758 6.94737 11.0526V8.14737C6.94737 7.48463 7.48463 6.94737 8.14737 6.94737H11.0526C11.5758 6.94737 12 6.52322 12 6C12 5.47678 11.5758 5.05263 11.0526 5.05263H8.14737C7.48463 5.05263 6.94737 4.51537 6.94737 3.85263V0.947369C6.94737 0.424151 6.52322 0 6 0Z" fill="var(--fill-0, white)"/>
</svg>
