<svg preserveAspectRatio="none" width="100%" height="100%" overflow="visible" style="display: block;" viewBox="0 0 19.1993 19.5041" fill="none" xmlns="http://www.w3.org/2000/svg">
<g id="payment_history_">
<path id="Union" d="M18.1166 5.2906C15.6526 0.502777 9.77362 -1.38131 4.98574 1.0826C4.05327 1.56247 3.22979 2.17367 2.52675 2.88142L2.49941 1.81111C2.48224 1.12097 1.90928 0.575196 1.21913 0.592362C0.529181 0.60959 -0.0165633 1.18271 0.000384269 1.87264L0.10683 6.11482C0.124253 6.80473 0.697123 7.34976 1.3871 7.3326L5.62831 7.22713C6.31836 7.20992 6.86414 6.6369 6.84706 5.94685C6.8299 5.25671 6.25596 4.71094 5.56581 4.7281L4.18788 4.76228C4.73333 4.18745 5.38209 3.69083 6.12929 3.30623C9.68955 1.47399 14.0617 2.87488 15.8939 6.43514C17.7258 9.99527 16.3251 14.3666 12.765 16.1988C9.20477 18.031 4.83262 16.6302 3.00038 13.0699C2.68446 12.4562 1.93155 12.215 1.31777 12.5308C0.704047 12.8467 0.4621 13.5997 0.777728 14.2135C3.24175 19.0013 9.12068 20.8854 13.9086 18.4215C18.6965 15.9574 20.5806 10.0785 18.1166 5.2906Z" fill="var(--fill-0, #224F72)"/>
<path id="Line 1" d="M9.42488 6.62124L9.42488 10.6642L12.5765 12.1383" stroke="var(--stroke-0, #224F72)" stroke-width="2.5" stroke-linecap="round" stroke-linejoin="round"/>
</g>
</svg>
