<svg preserveAspectRatio="none" width="100%" height="100%" overflow="visible" style="display: block;" viewBox="0 0 24 24" fill="none" xmlns="http://www.w3.org/2000/svg">
<g id="fluent:sparkle-28-filled">
<path id="Vector" d="M8.62243 16.0297C8.79148 16.1491 8.98496 16.2294 9.18886 16.2647C9.39276 16.3001 9.60197 16.2897 9.80135 16.2342C10.0007 16.1787 10.1853 16.0796 10.3416 15.944C10.4979 15.8085 10.6222 15.6398 10.7053 15.4503L11.3653 13.4446C11.5258 12.962 11.7965 12.5235 12.156 12.1637C12.5154 11.804 12.9537 11.5329 13.4361 11.372L15.3544 10.7489C15.6271 10.654 15.8629 10.4755 16.0281 10.2389C16.1558 10.0594 16.2389 9.85221 16.2707 9.63432C16.3024 9.41643 16.2819 9.19411 16.2109 8.9857C16.1398 8.7773 16.0201 8.58879 15.8618 8.43573C15.7035 8.28267 15.5111 8.16946 15.3004 8.10542L13.4019 7.48828C12.9192 7.32816 12.4804 7.05781 12.1204 6.69866C11.7603 6.33951 11.4889 5.90143 11.3276 5.41914L10.7044 3.50171C10.6086 3.23004 10.4307 2.9949 10.1953 2.82885C9.95849 2.66557 9.67765 2.57813 9.39 2.57812C9.10236 2.57813 8.82152 2.66557 8.58472 2.82885C8.34568 2.99789 8.16578 3.23776 8.07043 3.51457L7.43958 5.456C7.27864 5.92576 7.01297 6.35277 6.66266 6.70471C6.31236 7.05665 5.88659 7.32431 5.41758 7.48742L3.49758 8.10971C3.22437 8.20629 2.98806 8.38562 2.82152 8.62276C2.65498 8.85989 2.5665 9.14305 2.56839 9.43281C2.57027 9.72258 2.66243 10.0046 2.83204 10.2395C3.00165 10.4745 3.24028 10.6507 3.51472 10.7437L5.41415 11.3609C6.02996 11.5675 6.57132 11.9509 6.97072 12.4631C7.19872 12.7571 7.37443 13.0871 7.49015 13.4403L8.11415 15.3551C8.21015 15.6277 8.38843 15.8634 8.62415 16.0297M16.9761 21.2411C17.1506 21.3644 17.3591 21.4303 17.5727 21.4297C17.7849 21.4304 17.9921 21.3654 18.1659 21.2437C18.3448 21.1174 18.4787 20.9372 18.5481 20.7294L18.867 19.7497C18.9344 19.5463 19.0483 19.3614 19.1996 19.2096C19.3509 19.0579 19.5355 18.9435 19.7387 18.8754L20.7381 18.5514C20.9397 18.4798 21.1142 18.3477 21.2377 18.1731C21.3612 17.9984 21.4278 17.7899 21.4281 17.576C21.4282 17.3565 21.3579 17.1428 21.2278 16.966C21.0976 16.7893 20.9143 16.6588 20.7047 16.5937L19.7241 16.2766C19.5206 16.209 19.3357 16.095 19.1839 15.9436C19.0322 15.7921 18.9178 15.6074 18.8499 15.404L18.5241 14.4071C18.4539 14.2037 18.3216 14.0274 18.1459 13.9031C17.9702 13.7788 17.7599 13.7127 17.5447 13.7143C17.3294 13.7158 17.1201 13.7848 16.9461 13.9115C16.7722 14.0383 16.6424 14.2164 16.575 14.4209L16.2544 15.4031C16.1887 15.6039 16.0778 15.7869 15.9303 15.938C15.7827 16.0891 15.6024 16.2044 15.4033 16.2749L14.4039 16.5989C14.2018 16.6702 14.0269 16.8024 13.903 16.9772C13.7792 17.152 13.7125 17.3609 13.7121 17.5751C13.7124 17.7912 13.7806 18.0017 13.9073 18.1768C14.0339 18.3519 14.2124 18.4827 14.4176 18.5506L15.3981 18.8694C15.6024 18.9368 15.788 19.0512 15.9399 19.2036C16.0918 19.3559 16.2057 19.5418 16.2724 19.7463L16.5973 20.7431C16.6682 20.9445 16.8 21.1189 16.9744 21.242" fill="var(--fill-0, #27755E)"/>
</g>
</svg>
