<svg preserveAspectRatio="xMidYMid meet" width="100%" height="100%" overflow="visible" style="display: block;" viewBox="0 0 24 24" fill="none" xmlns="http://www.w3.org/2000/svg">
<g id="Icon 1" clip-path="url(#clip0_0_6)">
<g id="Vector">
<path fill-rule="evenodd" clip-rule="evenodd" d="M0.848361 0.890147C0.261123 1.48152 0.200135 2.2181 0.0781585 3.69126C-0.0344683 5.0515 -0.0222737 6.29492 0.0926016 7.64315C0.22622 9.21135 0.293029 9.99545 0.89114 10.5874C1.48925 11.1794 2.27084 11.2379 3.83401 11.3549C5.11504 11.4508 6.27118 11.4524 7.50595 11.3643C9.08784 11.2513 9.87879 11.1949 10.4777 10.6104C11.0766 10.026 11.155 9.20902 11.3118 7.57515C11.4396 6.24432 11.4756 5.026 11.3519 3.61346C11.2267 2.18519 11.1642 1.47106 10.5786 0.883474C9.99307 0.295892 9.26171 0.229261 7.79898 0.0959994C6.39346 -0.0320501 5.1143 -0.0318436 3.68138 0.0969366C2.18419 0.231493 1.4356 0.298772 0.848361 0.890147ZM3.79995 3.81947C3.49158 4.13079 3.47395 4.49513 3.43868 5.2238C3.42349 5.53749 3.42524 5.84094 3.44209 6.15261C3.4841 6.9301 3.50511 7.31885 3.81842 7.62906C4.13174 7.93927 4.51962 7.95635 5.29537 7.99052C5.56555 8.00242 5.82618 8.00317 6.09056 7.99307C6.87801 7.96299 7.27174 7.94795 7.5864 7.64176C7.90106 7.33556 7.92764 6.93006 7.9808 6.11907C8.00107 5.80983 8.00621 5.50718 7.99044 5.1851C7.95599 4.48123 7.93876 4.1293 7.63064 3.81823C7.32251 3.50716 6.96061 3.48599 6.23681 3.44365C5.89528 3.42368 5.56526 3.42369 5.21952 3.44373C4.47872 3.48668 4.10832 3.50815 3.79995 3.81947Z" fill="var(--fill-0, #224F72)"/>
<path d="M12.6105 14.4172C12.6714 13.6806 12.7019 13.3123 12.9956 13.0166C13.2892 12.721 13.6635 12.6873 14.4121 12.62C15.1285 12.5556 15.7681 12.5555 16.4709 12.6196C17.2022 12.6862 17.5679 12.7195 17.8607 13.0133C18.1535 13.3071 18.1847 13.6642 18.2473 14.3783C18.3092 15.0846 18.2912 15.6937 18.2273 16.3591C18.1489 17.1761 18.1097 17.5845 17.8102 17.8768C17.5108 18.169 17.1153 18.1972 16.3244 18.2537C15.707 18.2978 15.1289 18.297 14.4884 18.249C13.7068 18.1905 13.316 18.1613 13.0169 17.8653C12.7179 17.5693 12.6845 17.1772 12.6177 16.3931C12.5602 15.719 12.5541 15.0973 12.6105 14.4172Z" fill="var(--fill-0, #224F72)"/>
<path d="M18.3246 20.1314C18.3856 19.3948 18.4161 19.0265 18.7098 18.7308C19.0034 18.4351 19.3777 18.4015 20.1263 18.3342C20.8427 18.2698 21.4823 18.2697 22.1851 18.3338C22.9164 18.4004 23.2821 18.4337 23.5749 18.7275C23.8677 19.0213 23.8989 19.3784 23.9615 20.0925C24.0234 20.7988 24.0054 21.4079 23.9415 22.0733C23.8631 22.8903 23.8239 23.2987 23.5244 23.591C23.225 23.8832 22.8295 23.9114 22.0385 23.9679C21.4212 24.012 20.8431 24.0112 20.2026 23.9632C19.421 23.9047 19.0302 23.8755 18.7311 23.5795C18.4321 23.2835 18.3987 22.8914 18.3319 22.1073C18.2744 21.4332 18.2683 20.8115 18.3246 20.1314Z" fill="var(--fill-0, #224F72)"/>
<path fill-rule="evenodd" clip-rule="evenodd" d="M13.4198 0.890147C12.8326 1.48152 12.7716 2.2181 12.6496 3.69126C12.537 5.0515 12.5492 6.29492 12.6641 7.64315C12.7977 9.21135 12.8645 9.99545 13.4626 10.5874C14.0607 11.1794 14.8423 11.2379 16.4055 11.3549C17.6865 11.4508 18.8427 11.4524 20.0774 11.3643C21.6593 11.2513 22.4503 11.1949 23.0492 10.6104C23.6481 10.026 23.7265 9.20902 23.8833 7.57515C24.0111 6.24432 24.0471 5.026 23.9234 3.61346C23.7982 2.18519 23.7357 1.47106 23.1501 0.883474C22.5646 0.295892 21.8332 0.229261 20.3705 0.0959994C18.965 -0.0320501 17.6858 -0.0318436 16.2529 0.0969366C14.7557 0.231493 14.0071 0.298772 13.4198 0.890147ZM16.3715 3.81947C16.0631 4.13079 16.0455 4.49513 16.0102 5.2238C15.995 5.53749 15.9968 5.84094 16.0136 6.15261C16.0556 6.9301 16.0766 7.31885 16.3899 7.62906C16.7032 7.93927 17.0911 7.95635 17.8669 7.99052C18.1371 8.00242 18.3977 8.00317 18.6621 7.99307C19.4495 7.96299 19.8432 7.94795 20.1579 7.64176C20.4726 7.33556 20.4991 6.93006 20.5523 6.11907C20.5726 5.80983 20.5777 5.50718 20.5619 5.1851C20.5275 4.48123 20.5103 4.1293 20.2021 3.81823C19.894 3.50716 19.5321 3.48599 18.8083 3.44365C18.4668 3.42368 18.1368 3.42369 17.791 3.44373C17.0502 3.48668 16.6798 3.50815 16.3715 3.81947Z" fill="var(--fill-0, #224F72)"/>
<path fill-rule="evenodd" clip-rule="evenodd" d="M0.848361 13.4616C0.261123 14.053 0.200135 14.7896 0.0781585 16.2627C-0.0344683 17.623 -0.0222737 18.8664 0.0926016 20.2146C0.22622 21.7828 0.293029 22.5669 0.89114 23.1589C1.48925 23.7509 2.27084 23.8094 3.83401 23.9264C5.11504 24.0223 6.27118 24.0239 7.50595 23.9358C9.08784 23.8228 9.87879 23.7664 10.4777 23.1819C11.0766 22.5974 11.155 21.7805 11.3118 20.1466C11.4396 18.8158 11.4756 17.5975 11.3519 16.1849C11.2267 14.7567 11.1642 14.0425 10.5786 13.455C9.99307 12.8674 9.26171 12.8008 7.79898 12.6675C6.39346 12.5394 5.1143 12.5396 3.68138 12.6684C2.18419 12.803 1.4356 12.8703 0.848361 13.4616ZM3.79995 16.391C3.49158 16.7023 3.47395 17.0666 3.43868 17.7953C3.42349 18.109 3.42524 18.4124 3.44209 18.7241C3.4841 19.5016 3.50511 19.8904 3.81842 20.2006C4.13174 20.5108 4.51962 20.5279 5.29537 20.562C5.56555 20.5739 5.82618 20.5747 6.09056 20.5646C6.87801 20.5345 7.27174 20.5195 7.5864 20.2133C7.90106 19.9071 7.92764 19.5016 7.9808 18.6906C8.00107 18.3813 8.00621 18.0787 7.99044 17.7566C7.95599 17.0527 7.93876 16.7008 7.63064 16.3897C7.32251 16.0787 6.96061 16.0575 6.23681 16.0152C5.89528 15.9952 5.56526 15.9952 5.21952 16.0152C4.47872 16.0582 4.10832 16.0797 3.79995 16.391Z" fill="var(--fill-0, #224F72)"/>
</g>
</g>
<defs>
<clipPath id="clip0_0_6">
<rect width="24" height="24" fill="white"/>
</clipPath>
</defs>
</svg>
