<svg preserveAspectRatio="none" width="100%" height="100%" overflow="visible" style="display: block;" viewBox="0 0 106 106" fill="none" xmlns="http://www.w3.org/2000/svg">
<g id="Scan QR Marquee" filter="url(#filter0_d_0_87)">
<rect x="29" y="23" width="48" height="48" rx="16" fill="var(--fill-0, #E4F3FF)" shape-rendering="crispEdges"/>
<rect x="28" y="22" width="50" height="50" rx="17" stroke="url(#paint0_linear_0_87)" stroke-width="2" shape-rendering="crispEdges"/>
<g id="Vector">
<path fill-rule="evenodd" clip-rule="evenodd" d="M41.8486 36.89C41.2613 37.4814 41.2004 38.2179 41.0784 39.6911C40.9658 41.0513 40.978 42.2948 41.0928 43.643C41.2264 45.2112 41.2933 45.9953 41.8914 46.5873C42.4895 47.1793 43.2711 47.2378 44.8342 47.3548C46.1153 47.4506 47.2714 47.4523 48.5062 47.3641C50.0881 47.2512 50.879 47.1947 51.4779 46.6103C52.0768 46.0258 52.1552 45.2089 52.3121 43.575C52.4398 42.2442 52.4758 41.0258 52.3521 39.6133C52.227 38.185 52.1644 37.4709 51.5788 36.8833C50.9933 36.2957 50.2619 36.2291 48.7992 36.0958C47.3937 35.9678 46.1145 35.968 44.6816 36.0968C43.1844 36.2313 42.4358 36.2986 41.8486 36.89ZM44.8002 39.8193C44.4918 40.1306 44.4742 40.495 44.4389 41.2236C44.4237 41.5373 44.4255 41.8408 44.4423 42.1525C44.4843 42.9299 44.5053 43.3187 44.8186 43.6289C45.132 43.9391 45.5198 43.9562 46.2956 43.9904C46.5658 44.0023 46.8264 44.003 47.0908 43.9929C47.8782 43.9628 48.272 43.9478 48.5866 43.6416C48.9013 43.3354 48.9279 42.9299 48.981 42.1189C49.0013 41.8097 49.0064 41.507 48.9907 41.1849C48.9562 40.4811 48.939 40.1291 48.6309 39.8181C48.3227 39.507 47.9608 39.4858 47.237 39.4435C46.8955 39.4235 46.5655 39.4235 46.2197 39.4436C45.4789 39.4865 45.1085 39.508 44.8002 39.8193Z" fill="var(--fill-0, #224F72)"/>
<path d="M53.6107 50.417C53.6717 49.6805 53.7022 49.3122 53.9958 49.0165C54.2894 48.7208 54.6637 48.6872 55.4123 48.6199C56.1287 48.5555 56.7683 48.5554 57.4711 48.6194C58.2025 48.686 58.5681 48.7194 58.8609 49.0131C59.1537 49.3069 59.185 49.664 59.2475 50.3781C59.3094 51.0844 59.2914 51.6936 59.2275 52.359C59.1491 53.1759 59.1099 53.5844 58.8104 53.8766C58.511 54.1688 58.1155 54.1971 57.3246 54.2535C56.7072 54.2976 56.1291 54.2968 55.4886 54.2489C54.707 54.1904 54.3162 54.1611 54.0172 53.8651C53.7181 53.5691 53.6847 53.1771 53.6179 52.393C53.5605 51.7189 53.5544 51.0972 53.6107 50.417Z" fill="var(--fill-0, #224F72)"/>
<path d="M59.3249 56.1312C59.3859 55.3947 59.4164 55.0264 59.71 54.7307C60.0036 54.435 60.3779 54.4014 61.1265 54.3341C61.8429 54.2697 62.4825 54.2696 63.1853 54.3336C63.9166 54.4002 64.2823 54.4336 64.5751 54.7273C64.8679 55.0211 64.8992 55.3782 64.9617 56.0923C65.0236 56.7986 65.0056 57.4078 64.9417 58.0732C64.8633 58.8901 64.8241 59.2986 64.5246 59.5908C64.2252 59.883 63.8297 59.9113 63.0388 59.9677C62.4214 60.0118 61.8433 60.011 61.2028 59.9631C60.4212 59.9046 60.0304 59.8753 59.7314 59.5793C59.4323 59.2833 59.3989 58.8913 59.3321 58.1072C59.2747 57.4331 59.2686 56.8114 59.3249 56.1312Z" fill="var(--fill-0, #224F72)"/>
<path fill-rule="evenodd" clip-rule="evenodd" d="M54.4201 36.89C53.8328 37.4814 53.7718 38.2179 53.6499 39.6911C53.5372 41.0513 53.5494 42.2948 53.6643 43.643C53.7979 45.2112 53.8647 45.9953 54.4629 46.5873C55.061 47.1793 55.8425 47.2378 57.4057 47.3548C58.6868 47.4506 59.8429 47.4523 61.0777 47.3641C62.6596 47.2512 63.4505 47.1947 64.0494 46.6103C64.6483 46.0258 64.7267 45.2089 64.8835 43.575C65.0113 42.2442 65.0473 41.0258 64.9236 39.6133C64.7984 38.185 64.7359 37.4709 64.1503 36.8833C63.5648 36.2957 62.8334 36.2291 61.3707 36.0958C59.9652 35.9678 58.686 35.968 57.2531 36.0968C55.7559 36.2313 55.0073 36.2986 54.4201 36.89ZM57.3717 39.8193C57.0633 40.1306 57.0457 40.495 57.0104 41.2236C56.9952 41.5373 56.997 41.8408 57.0138 42.1525C57.0558 42.9299 57.0768 43.3187 57.3902 43.6289C57.7035 43.9391 58.0913 43.9562 58.8671 43.9904C59.1373 44.0023 59.3979 44.003 59.6623 43.9929C60.4497 43.9628 60.8435 43.9478 61.1581 43.6416C61.4728 43.3354 61.4994 42.9299 61.5525 42.1189C61.5728 41.8097 61.5779 41.507 61.5622 41.1849C61.5277 40.4811 61.5105 40.1291 61.2024 39.8181C60.8942 39.507 60.5323 39.4858 59.8085 39.4435C59.467 39.4235 59.137 39.4235 58.7912 39.4436C58.0504 39.4865 57.68 39.508 57.3717 39.8193Z" fill="var(--fill-0, #224F72)"/>
<path fill-rule="evenodd" clip-rule="evenodd" d="M41.8486 49.4615C41.2613 50.0529 41.2004 50.7894 41.0784 52.2626C40.9658 53.6228 40.978 54.8663 41.0928 56.2145C41.2264 57.7827 41.2933 58.5668 41.8914 59.1588C42.4895 59.7508 43.2711 59.8093 44.8342 59.9262C46.1153 60.0221 47.2714 60.0238 48.5062 59.9356C50.0881 59.8227 50.879 59.7662 51.4779 59.1817C52.0768 58.5973 52.1552 57.7804 52.3121 56.1465C52.4398 54.8156 52.4758 53.5973 52.3521 52.1848C52.227 50.7565 52.1644 50.0424 51.5788 49.4548C50.9933 48.8672 50.2619 48.8006 48.7992 48.6673C47.3937 48.5393 46.1145 48.5395 44.6816 48.6683C43.1844 48.8028 42.4358 48.8701 41.8486 49.4615ZM44.8002 52.3908C44.4918 52.7021 44.4742 53.0665 44.4389 53.7951C44.4237 54.1088 44.4255 54.4123 44.4423 54.724C44.4843 55.5015 44.5053 55.8902 44.8186 56.2004C45.132 56.5106 45.5198 56.5277 46.2956 56.5619C46.5658 56.5738 46.8264 56.5745 47.0908 56.5644C47.8782 56.5343 48.272 56.5193 48.5866 56.2131C48.9013 55.9069 48.9279 55.5014 48.981 54.6904C49.0013 54.3812 49.0064 54.0785 48.9907 53.7564C48.9562 53.0526 48.939 52.7006 48.6309 52.3896C48.3227 52.0785 47.9608 52.0573 47.237 52.015C46.8955 51.995 46.5655 51.995 46.2197 52.0151C45.4789 52.058 45.1085 52.0795 44.8002 52.3908Z" fill="var(--fill-0, #224F72)"/>
</g>
</g>
<defs>
<filter id="filter0_d_0_87" x="0" y="0" width="106" height="106" filterUnits="userSpaceOnUse" color-interpolation-filters="sRGB">
<feFlood flood-opacity="0" result="BackgroundImageFix"/>
<feColorMatrix in="SourceAlpha" type="matrix" values="0 0 0 0 0 0 0 0 0 0 0 0 0 0 0 0 0 0 127 0" result="hardAlpha"/>
<feOffset dy="6"/>
<feGaussianBlur stdDeviation="13.5"/>
<feComposite in2="hardAlpha" operator="out"/>
<feColorMatrix type="matrix" values="0 0 0 0 0.0862745 0 0 0 0 0.105882 0 0 0 0 0.129412 0 0 0 0.04 0"/>
<feBlend mode="normal" in2="BackgroundImageFix" result="effect1_dropShadow_0_87"/>
<feBlend mode="normal" in="SourceGraphic" in2="effect1_dropShadow_0_87" result="shape"/>
</filter>
<linearGradient id="paint0_linear_0_87" x1="53" y1="23" x2="53" y2="71" gradientUnits="userSpaceOnUse">
<stop stop-color="#C4E6FF"/>
<stop offset="1" stop-color="#8DBFE4" stop-opacity="0.65"/>
</linearGradient>
</defs>
</svg>
