<svg preserveAspectRatio="none" width="100%" height="100%" overflow="visible" style="display: block;" viewBox="0 0 106 106" fill="none" xmlns="http://www.w3.org/2000/svg">
<g id="Scan QR Marquee" filter="url(#filter0_d_0_97)">
<rect x="29" y="23" width="48" height="48" rx="16" fill="var(--fill-0, #E4F3FF)" shape-rendering="crispEdges"/>
<rect x="28" y="22" width="50" height="50" rx="17" stroke="url(#paint0_linear_0_97)" stroke-width="2" shape-rendering="crispEdges"/>
<g id="Vector">
<path fill-rule="evenodd" clip-rule="evenodd" d="M50.1409 41.2382C49.6535 41.6557 49.6441 42.4162 50.092 42.8786C51.3006 44.1262 52.3952 45.3925 53.6501 47.006C54.05 47.5202 54.25 47.7773 54.25 48.0926C54.25 48.4079 54.0499 48.665 53.6499 49.1793C53.554 49.3026 53.459 49.4239 53.3648 49.5433C53.2054 49.7454 53.1173 49.9979 53.1173 50.2588V51.343C53.1173 52.3098 53.8669 53.0935 54.7915 53.0935C55.7162 53.0935 56.4658 52.3098 56.4658 51.343V47.811C56.4658 47.086 57.028 46.4982 57.7214 46.4982C58.4149 46.4982 58.9771 47.086 58.9771 47.811V51.343C58.9771 52.3098 59.7267 53.0935 60.6513 53.0935C61.576 53.0935 62.3256 52.3098 62.3256 51.343V46.9007C62.3256 46.6784 62.4979 46.4982 62.7106 46.4982C63.4684 46.4982 63.8474 46.4982 63.9681 46.2782C64.0887 46.0582 63.8603 45.7895 63.4035 45.252C61.0125 42.439 59.0625 40.7075 55.8216 38.502C55.3294 38.1671 55.0833 37.9996 54.7885 38C54.4937 38.0004 54.2482 38.1684 53.7571 38.5044C52.3632 39.4582 51.206 40.3258 50.1409 41.2382ZM56.2205 41.972C56.2205 42.8494 55.5402 43.5608 54.7009 43.5608C53.8617 43.5608 53.1813 42.8494 53.1813 41.972C53.1813 41.0945 53.8617 40.3832 54.7009 40.3832C55.5402 40.3832 56.2205 41.0945 56.2205 41.972Z" fill="#224F72"/>
<path d="M46.7778 58H62.8079C63.5883 58 64.1537 57.2013 63.9626 56.3854L63.8193 55.7843C63.6839 55.2175 63.2061 54.8224 62.6646 54.8224H46.9211C46.3796 54.8224 45.9018 55.2261 45.7664 55.7929L45.6231 56.394C45.424 57.2013 45.9974 58 46.7778 58Z" fill="#224F72"/>
<path d="M45.8145 46.2618C45.5763 46.3744 45.27 46.3744 44.6576 46.3744H39.6706C38.7479 46.3744 38 47.1487 38 48.1038C38 49.059 38.7479 49.8333 39.6706 49.8333H44.6555C45.2699 49.8333 45.5771 49.8333 45.816 49.9465C46.0787 50.0711 46.2894 50.2892 46.4097 50.5611C46.5191 50.8084 46.5191 51.1264 46.5191 51.7624C46.5191 52.9348 46.5191 53.521 46.8773 53.6854C47.2355 53.8498 47.6489 53.4621 48.4759 52.6866C49.7499 51.4918 50.766 50.4019 51.9893 48.8814C52.2854 48.5134 52.4335 48.3294 52.4335 48.1037C52.4335 47.878 52.2855 47.6941 51.9895 47.3261C50.7673 45.8067 49.7506 44.7176 48.477 43.5231C47.6493 42.7469 47.2355 42.3588 46.8773 42.5232C46.5191 42.6877 46.5191 43.2742 46.5191 44.4473C46.5191 45.0814 46.5191 45.3984 46.4103 45.6451C46.2899 45.9182 46.0784 46.1372 45.8145 46.2618Z" fill="#224F72"/>
</g>
</g>
<defs>
<filter id="filter0_d_0_97" x="0" y="0" width="106" height="106" filterUnits="userSpaceOnUse" color-interpolation-filters="sRGB">
<feFlood flood-opacity="0" result="BackgroundImageFix"/>
<feColorMatrix in="SourceAlpha" type="matrix" values="0 0 0 0 0 0 0 0 0 0 0 0 0 0 0 0 0 0 127 0" result="hardAlpha"/>
<feOffset dy="6"/>
<feGaussianBlur stdDeviation="13.5"/>
<feComposite in2="hardAlpha" operator="out"/>
<feColorMatrix type="matrix" values="0 0 0 0 0.0862745 0 0 0 0 0.105882 0 0 0 0 0.129412 0 0 0 0.04 0"/>
<feBlend mode="normal" in2="BackgroundImageFix" result="effect1_dropShadow_0_97"/>
<feBlend mode="normal" in="SourceGraphic" in2="effect1_dropShadow_0_97" result="shape"/>
</filter>
<linearGradient id="paint0_linear_0_97" x1="53" y1="23" x2="53" y2="71" gradientUnits="userSpaceOnUse">
<stop stop-color="#C4E6FF"/>
<stop offset="1" stop-color="#8DBFE4" stop-opacity="0.65"/>
</linearGradient>
</defs>
</svg>
