<svg preserveAspectRatio="xMidYMid meet" width="100%" height="100%" overflow="visible" style="display: block;" viewBox="0 0 28 24" fill="none" xmlns="http://www.w3.org/2000/svg">
<g id="Icon 3">
<g id="Vector">
<path fill-rule="evenodd" clip-rule="evenodd" d="M13.1406 5.23824C12.6533 5.6557 12.6439 6.41621 13.0918 6.8786C14.3003 8.12618 15.395 9.39245 16.6499 11.006C17.0498 11.5202 17.2498 11.7773 17.2497 12.0926C17.2497 12.4079 17.0497 12.665 16.6497 13.1793C16.5537 13.3026 16.4587 13.4239 16.3646 13.5433C16.2052 13.7454 16.1171 13.9979 16.1171 14.2588V15.343C16.1171 16.3098 16.8666 17.0935 17.7913 17.0935C18.716 17.0935 19.4655 16.3098 19.4655 15.343V11.811C19.4655 11.086 20.0277 10.4982 20.7212 10.4982C21.4147 10.4982 21.9769 11.086 21.9769 11.811V15.343C21.9769 16.3098 22.7264 17.0935 23.6511 17.0935C24.5758 17.0935 25.3253 16.3098 25.3253 15.343V10.9007C25.3253 10.6784 25.4977 10.4982 25.7103 10.4982C26.4682 10.4982 26.8472 10.4982 26.9678 10.2782C27.0885 10.0582 26.8601 9.78946 26.4033 9.25201C24.0122 6.43897 22.0623 4.70747 18.8213 2.50205C18.3291 2.16712 18.083 1.99965 17.7882 2C17.4935 2.00036 17.2479 2.16837 16.7568 2.5044C15.363 3.45818 14.2058 4.32585 13.1406 5.23824ZM19.2203 5.97197C19.2203 6.84943 18.54 7.56075 17.7007 7.56075C16.8615 7.56075 16.1811 6.84943 16.1811 5.97197C16.1811 5.0945 16.8615 4.38318 17.7007 4.38318C18.54 4.38318 19.2203 5.0945 19.2203 5.97197Z" fill="#224F72"/>
<path d="M9.77753 22H25.8077C26.5881 22 27.1535 21.2013 26.9624 20.3854L26.819 19.7843C26.6837 19.2175 26.2059 18.8224 25.6644 18.8224H9.92087C9.37937 18.8224 8.90157 19.2261 8.76619 19.7929L8.62285 20.394C8.42377 21.2013 8.99713 22 9.77753 22Z" fill="#224F72"/>
<path d="M8.8143 10.2618C8.57602 10.3744 8.2698 10.3744 7.65734 10.3744H2.67035C1.74771 10.3744 0.999771 11.1487 0.999771 12.1038C0.999771 13.059 1.74771 13.8333 2.67035 13.8333H7.65531C8.26968 13.8333 8.57686 13.8333 8.81575 13.9465C9.07843 14.0711 9.28913 14.2892 9.40943 14.5611C9.51884 14.8084 9.51885 15.1264 9.51885 15.7624C9.51885 16.9348 9.51884 17.521 9.87704 17.6854C10.2352 17.8498 10.6487 17.4621 11.4757 16.6866C12.7497 15.4918 13.7658 14.4019 14.9891 12.8814C15.2852 12.5134 15.4332 12.3294 15.4333 12.1037C15.4333 11.878 15.2853 11.6941 14.9893 11.3261C13.7671 9.80672 12.7504 8.71761 11.4767 7.52313C10.6491 6.74692 10.2352 6.35882 9.87705 6.52324C9.51884 6.68766 9.51885 7.27422 9.51885 8.44735C9.51885 9.08137 9.51885 9.39839 9.4101 9.64506C9.28968 9.91819 9.07814 10.1372 8.8143 10.2618Z" fill="#224F72"/>
</g>
</g>
</svg>
