<svg preserveAspectRatio="xMidYMid meet" width="100%" height="100%" overflow="visible" style="display: block;" viewBox="0 0 19.9153 16" fill="none" xmlns="http://www.w3.org/2000/svg">
<g id="view_card_">
<g id="Subtract">
</g>
<path id="Rectangle 2628408" d="M6.78027 1.25H13.1094C14.6912 1.25 15.7497 1.25251 16.5449 1.3623C17.2971 1.46616 17.6458 1.647 17.8945 1.88965C18.1542 2.14297 18.3361 2.4774 18.4541 3.16895C18.5809 3.91224 18.6093 4.89908 18.6465 6.39355C18.6732 7.46911 18.6717 8.51142 18.6436 9.5791C18.6039 11.0834 18.5744 12.0784 18.4463 12.8271C18.3269 13.5251 18.1438 13.8599 17.8857 14.1113C17.6379 14.3527 17.2883 14.5338 16.5322 14.6377C15.734 14.7474 14.6717 14.75 13.085 14.75H6.81543C5.2421 14.75 4.1898 14.7475 3.39844 14.6387C2.64975 14.5357 2.30109 14.3569 2.05273 14.1162C1.79299 13.8645 1.6107 13.5326 1.48926 12.8477C1.35864 12.1109 1.32511 11.1324 1.27832 9.64941C1.24295 8.52834 1.24038 7.43809 1.27344 6.31152C1.31655 4.84237 1.34785 3.87543 1.47656 3.14648C1.59588 2.47092 1.77795 2.14025 2.04004 1.88574C2.28969 1.64342 2.63673 1.46522 3.37988 1.3623C4.16715 1.2533 5.21358 1.25 6.78027 1.25Z" stroke="var(--stroke-0, #224F72)" stroke-width="2.5"/>
<rect id="Rectangle 2628498" x="1.95703" y="5" width="16" height="2.5" fill="var(--fill-0, #224F72)"/>
<rect id="Rectangle 2628499" x="3.95703" y="9.7832" width="4" height="2" rx="1" fill="var(--fill-0, #224F72)"/>
</g>
</svg>
