<svg preserveAspectRatio="none" width="100%" height="100%" overflow="visible" style="display: block;" viewBox="0 0 152.8 131.8" fill="none" xmlns="http://www.w3.org/2000/svg">
<g id="Subtract">
<path d="M1.4 17.4C1.4 8.56344 8.56344 1.4 17.4 1.4H135.4C144.237 1.4 151.4 8.56344 151.4 17.4V50.4C151.4 53.1614 149.027 55.2964 146.605 56.6224C143.503 58.3203 141.4 61.6145 141.4 65.4C141.4 69.1855 143.503 72.4797 146.605 74.1776C149.027 75.5036 151.4 77.6386 151.4 80.4V114.4C151.4 123.237 144.237 130.4 135.4 130.4H17.4C8.56345 130.4 1.4 123.237 1.4 114.4V80.4C1.4 77.6386 3.77262 75.5036 6.19486 74.1776C9.29663 72.4797 11.4 69.1855 11.4 65.4C11.4 61.6145 9.29663 58.3203 6.19486 56.6224C3.77262 55.2964 1.4 53.1614 1.4 50.4V17.4Z" fill="var(--fill-0, #E2F6FF)" fill-opacity="0.6"/>
<path d="M135.4 0.699805C144.623 0.699805 152.1 8.17684 152.1 17.4V50.4C152.1 51.9937 151.413 53.3736 150.442 54.5055C149.474 55.6336 148.2 56.5469 146.941 57.2359C144.055 58.816 142.1 61.8805 142.1 65.4C142.1 68.9195 144.055 71.984 146.941 73.5641C148.2 74.2531 149.474 75.1664 150.442 76.2945C151.413 77.4264 152.1 78.8063 152.1 80.4V114.4C152.1 123.623 144.623 131.1 135.4 131.1H17.4C8.17685 131.1 0.699805 123.623 0.699805 114.4V80.4C0.699805 78.8063 1.38732 77.4264 2.35801 76.2945C3.32561 75.1664 4.60035 74.2531 5.85898 73.5641C8.74543 71.984 10.6998 68.9195 10.6998 65.4C10.6998 61.8805 8.74543 58.816 5.85898 57.2359C4.60035 56.5469 3.32561 55.6336 2.35801 54.5055C1.38732 53.3736 0.699805 51.9937 0.699805 50.4V17.4C0.699805 8.17685 8.17685 0.699805 17.4 0.699805H135.4Z" stroke="var(--stroke-0, #9AD3EC)" stroke-opacity="0.24" stroke-width="1.4"/>
</g>
</svg>
