<svg preserveAspectRatio="none" width="100%" height="100%" overflow="visible" style="display: block;" viewBox="0 0 152.8 131.8" fill="none" xmlns="http://www.w3.org/2000/svg">
<path id="Subtract" d="M135.4 0.699805C144.623 0.699805 152.1 8.17684 152.1 17.4V33.4C152.1 34.9937 151.413 36.3736 150.442 37.5055C149.474 38.6336 148.2 39.5469 146.941 40.2359C144.055 41.816 142.1 44.8805 142.1 48.4C142.1 51.9195 144.055 54.984 146.941 56.5641C148.2 57.2531 149.474 58.1664 150.442 59.2945C151.413 60.4264 152.1 61.8063 152.1 63.4V114.4C152.1 123.623 144.623 131.1 135.4 131.1H17.4C8.17685 131.1 0.699805 123.623 0.699805 114.4V63.4C0.699805 61.8063 1.38732 60.4264 2.35801 59.2945C3.32561 58.1664 4.60035 57.2531 5.85898 56.5641C8.74543 54.984 10.6998 51.9195 10.6998 48.4C10.6998 44.8805 8.74543 41.816 5.85898 40.2359C4.60035 39.5469 3.32561 38.6336 2.35801 37.5055C1.38732 36.3736 0.699805 34.9937 0.699805 33.4V17.4C0.699805 8.17685 8.17685 0.699805 17.4 0.699805H135.4Z" fill="var(--fill-0, #F1EAFF)" fill-opacity="0.5" stroke="url(#paint0_linear_0_60)" stroke-width="1.4"/>
<defs>
<linearGradient id="paint0_linear_0_60" x1="74.4" y1="1.4" x2="74.4" y2="130.4" gradientUnits="userSpaceOnUse">
<stop stop-color="#EDE5FF"/>
<stop offset="0.45" stop-color="#EDE5FF"/>
</linearGradient>
</defs>
</svg>
