<svg preserveAspectRatio="none" width="100%" height="100%" overflow="visible" style="display: block;" viewBox="0 0 67 11.5" fill="none" xmlns="http://www.w3.org/2000/svg">
<g id="Container">
<g id="Battery">
<path id="Rectangle" d="M60.9102 0C62.1582 0 62.6111 0.130042 63.0674 0.374023C63.5237 0.618053 63.8819 0.976321 64.126 1.43262C64.37 1.88887 64.5 2.34185 64.5 3.58984V7.91016C64.5 9.15815 64.37 9.61113 64.126 10.0674C63.8819 10.5237 63.5237 10.8819 63.0674 11.126C62.6111 11.37 62.1582 11.5 60.9102 11.5H46.0898C44.8418 11.5 44.3889 11.37 43.9326 11.126C43.4763 10.8819 43.1181 10.5237 42.874 10.0674C42.63 9.61113 42.5 9.15815 42.5 7.91016V3.58984C42.5 2.34185 42.63 1.88887 42.874 1.43262C43.1181 0.976321 43.4763 0.618053 43.9326 0.374023C44.3889 0.130042 44.8418 0 46.0898 0H60.9102ZM46.0898 1C45.103 1 44.7581 1.06668 44.4043 1.25586C44.1223 1.40669 43.9067 1.62227 43.7559 1.9043C43.5667 2.25812 43.5 2.60305 43.5 3.58984V7.91016C43.5 8.89695 43.5667 9.24188 43.7559 9.5957C43.9067 9.87773 44.1223 10.0933 44.4043 10.2441C44.7581 10.4333 45.103 10.5 46.0898 10.5H60.9102C61.897 10.5 62.2419 10.4333 62.5957 10.2441C62.8777 10.0933 63.0933 9.87773 63.2441 9.5957C63.4333 9.24188 63.5 8.89695 63.5 7.91016V3.58984C63.5 2.60305 63.4333 2.25812 63.2441 1.9043C63.0933 1.62227 62.8777 1.40669 62.5957 1.25586C62.2419 1.06668 61.897 1 60.9102 1H46.0898ZM65.5 3.69141C65.5 3.69141 67 4.45483 67 5.69141C67 6.92798 65.5 7.69141 65.5 7.69141V3.69141Z" fill="var(--fill-0, black)" fill-opacity="0.36"/>
<rect id="Rectangle_2" x="44.5" y="1.91797" width="18" height="7.66667" rx="1.6" fill="var(--fill-0, black)"/>
</g>
<path id="Combined Shape" d="M15.5996 0.441406C15.8784 0.441406 16.0179 0.441786 16.1338 0.464844C16.6097 0.559568 16.9814 0.931313 17.0762 1.40723C17.0992 1.52315 17.0996 1.66261 17.0996 1.94141V9.6416C17.0996 9.92026 17.0992 10.0599 17.0762 10.1758C16.9814 10.6516 16.6097 11.0235 16.1338 11.1182C16.0179 11.1412 15.8784 11.1416 15.5996 11.1416C15.3208 11.1416 15.1813 11.1412 15.0654 11.1182C14.5896 11.0235 14.2178 10.6516 14.123 10.1758C14.1 10.0599 14.0996 9.92026 14.0996 9.6416V1.94141C14.0996 1.66261 14.1 1.52315 14.123 1.40723C14.2178 0.931313 14.5895 0.559568 15.0654 0.464844C15.1813 0.441786 15.3208 0.441406 15.5996 0.441406ZM1.5 7.14062C1.77879 7.14062 1.91826 7.141 2.03418 7.16406C2.51009 7.25879 2.88184 7.63053 2.97656 8.10645C2.99962 8.22236 3 8.36183 3 8.64062V9.64062C3 9.91942 2.99962 10.0589 2.97656 10.1748C2.88184 10.6507 2.51009 11.0225 2.03418 11.1172C1.91826 11.1402 1.77879 11.1406 1.5 11.1406C1.22121 11.1406 1.08174 11.1402 0.96582 11.1172C0.489906 11.0225 0.118162 10.6507 0.0234375 10.1748C0.000379849 10.0589 0 9.91942 0 9.64062V8.64062C0 8.36183 0.000379849 8.22236 0.0234375 8.10645C0.118162 7.63053 0.489906 7.25879 0.96582 7.16406C1.08174 7.141 1.22121 7.14062 1.5 7.14062ZM6.30078 5.14062C6.57957 5.14062 6.71904 5.141 6.83496 5.16406C7.31087 5.25879 7.68262 5.63053 7.77734 6.10645C7.8004 6.22236 7.80078 6.36183 7.80078 6.64062V9.64062C7.80078 9.91942 7.8004 10.0589 7.77734 10.1748C7.68262 10.6507 7.31087 11.0225 6.83496 11.1172C6.71904 11.1402 6.57957 11.1406 6.30078 11.1406C6.02199 11.1406 5.88252 11.1402 5.7666 11.1172C5.29069 11.0225 4.91894 10.6507 4.82422 10.1748C4.80116 10.0589 4.80078 9.91942 4.80078 9.64062V6.64062C4.80078 6.36183 4.80116 6.22236 4.82422 6.10645C4.91894 5.63053 5.29069 5.25879 5.7666 5.16406C5.88252 5.141 6.02199 5.14062 6.30078 5.14062ZM10.9004 2.83984C11.1792 2.83984 11.3187 2.84022 11.4346 2.86328C11.9105 2.95801 12.2822 3.32975 12.377 3.80566C12.4 3.92158 12.4004 4.06105 12.4004 4.33984V9.63965C12.4004 9.9184 12.4 10.0579 12.377 10.1738C12.2823 10.6499 11.9106 11.0225 11.4346 11.1172C11.3187 11.1402 11.1792 11.1396 10.9004 11.1396C10.6216 11.1396 10.4821 11.1402 10.3662 11.1172C9.89018 11.0225 9.51852 10.6499 9.42383 10.1738C9.40078 10.0579 9.40039 9.9184 9.40039 9.63965V4.33984C9.40039 4.06105 9.40077 3.92158 9.42383 3.80566C9.51855 3.32975 9.8903 2.95801 10.3662 2.86328C10.4821 2.84022 10.6216 2.83984 10.9004 2.83984Z" fill="var(--fill-0, black)"/>
<path id="Wi-Fi" fill-rule="evenodd" clip-rule="evenodd" d="M29.8 2.53855C32.0344 2.53865 34.1834 3.3972 35.8028 4.93676C35.9247 5.05562 36.1196 5.05412 36.2397 4.93339L37.4054 3.75698C37.4662 3.69575 37.5001 3.61281 37.4996 3.52651C37.4991 3.44022 37.4642 3.35768 37.4027 3.29717C33.1524 -0.77614 26.447 -0.77614 22.1967 3.29717C22.1351 3.35764 22.1002 3.44015 22.0996 3.52644C22.099 3.61274 22.1329 3.6957 22.1937 3.75698L23.3597 4.93339C23.4797 5.0543 23.6747 5.0558 23.7966 4.93676C25.4162 3.3971 27.5654 2.53854 29.8 2.53855V2.53855ZM29.8 6.3644C31.0277 6.36433 32.2116 6.82064 33.1216 7.64468C33.2446 7.76163 33.4385 7.7591 33.5585 7.63897L34.7228 6.46255C34.7841 6.40084 34.8182 6.31713 34.8173 6.23015C34.8164 6.14316 34.7807 6.06016 34.7181 5.99971C31.947 3.42197 27.6555 3.42197 24.8843 5.99971C24.8217 6.06016 24.786 6.1432 24.7852 6.23022C24.7843 6.31723 24.8185 6.40093 24.8799 6.46255L26.0439 7.63897C26.1639 7.7591 26.3578 7.76163 26.4809 7.64468C27.3903 6.82119 28.5732 6.36491 29.8 6.3644V6.3644ZM32.0369 9.17518C32.0992 9.11407 32.1335 9.02997 32.1317 8.94274C32.1299 8.85551 32.0922 8.77288 32.0275 8.71436C30.7413 7.62646 28.8575 7.62646 27.5712 8.71436C27.5065 8.77284 27.4687 8.85544 27.4669 8.94267C27.465 9.0299 27.4993 9.11402 27.5615 9.17518L29.5758 11.2077C29.6349 11.2674 29.7154 11.301 29.7994 11.301C29.8834 11.301 29.9638 11.2674 30.0229 11.2077L32.0369 9.17518Z" fill="var(--fill-0, black)"/>
</g>
</svg>
