<svg preserveAspectRatio="none" width="100%" height="100%" overflow="visible" style="display: block;" viewBox="0 0 120.589 10.7159" fill="none" xmlns="http://www.w3.org/2000/svg">
<g id="Group 1686552122">
<g id="For All Your Payments">
<path d="M0 8.36364L1.38849 0H6.74645L6.53409 1.27006H2.69123L2.31552 3.54066H5.79084L5.57848 4.81072H2.10316L1.51509 8.36364H0Z" fill="var(--fill-0, #393939)"/>
<path d="M8.96498 8.48615C8.34696 8.48615 7.8324 8.35002 7.4213 8.07777C7.01292 7.80552 6.72569 7.423 6.55961 6.93022C6.39354 6.43744 6.36359 5.86571 6.46977 5.21502C6.57595 4.5725 6.78831 4.0103 7.10684 3.52841C7.4281 3.04652 7.8324 2.67353 8.31974 2.40945C8.80979 2.14264 9.35838 2.00923 9.96551 2.00923C10.5835 2.00923 11.0967 2.14672 11.5051 2.4217C11.9135 2.69395 12.2007 3.07647 12.3668 3.56925C12.5356 4.06203 12.5669 4.63648 12.4607 5.29261C12.3573 5.93241 12.1435 6.49189 11.8196 6.97106C11.4983 7.45023 11.094 7.82321 10.6067 8.09002C10.1193 8.35411 9.5721 8.48615 8.96498 8.48615ZM9.08749 7.30185C9.43053 7.30185 9.73137 7.20928 9.99001 7.02415C10.2514 6.83629 10.4651 6.58446 10.6312 6.26864C10.8 5.95011 10.917 5.59618 10.9824 5.20685C11.0423 4.83114 11.0436 4.49083 10.9865 4.1859C10.9293 3.87826 10.8068 3.63459 10.6189 3.4549C10.4338 3.27249 10.1765 3.18129 9.84708 3.18129C9.50404 3.18129 9.20048 3.27657 8.93639 3.46715C8.67503 3.65501 8.46131 3.9082 8.29523 4.22674C8.12916 4.54255 8.01481 4.89512 7.95219 5.28445C7.88957 5.66016 7.88685 6.00047 7.94403 6.3054C8.0012 6.61032 8.12371 6.85263 8.31157 7.03232C8.49942 7.212 8.75806 7.30185 9.08749 7.30185Z" fill="var(--fill-0, #393939)"/>
<path d="M13.2091 8.36364L14.2545 2.09091H15.6879L15.5123 3.13636H15.5777C15.7492 2.77427 15.9915 2.49521 16.3046 2.29918C16.6204 2.10044 16.958 2.00107 17.3174 2.00107C17.4018 2.00107 17.493 2.00515 17.591 2.01332C17.689 2.01876 17.7734 2.02829 17.8442 2.0419L17.6155 3.40181C17.5529 3.38003 17.4549 3.36097 17.3215 3.34464C17.1908 3.32558 17.0615 3.31605 16.9335 3.31605C16.664 3.31605 16.4135 3.37459 16.1821 3.49165C15.9534 3.606 15.7601 3.76527 15.6022 3.96946C15.4443 4.17365 15.3422 4.40915 15.2959 4.67596L14.6874 8.36364H13.2091Z" fill="var(--fill-0, #393939)"/>
<path d="M21.7718 8.36364H20.1546L24.4875 0H26.3579L27.9179 8.36364H26.3007L25.1777 1.7152H25.1123L21.7718 8.36364ZM22.368 5.08434H26.7785L26.5744 6.30131H22.1638L22.368 5.08434Z" fill="var(--fill-0, #393939)"/>
<path d="M31.821 0L30.4325 8.36364H28.9542L30.3427 0H31.821Z" fill="var(--fill-0, #393939)"/>
<path d="M34.8196 0L33.4311 8.36364H31.9527L33.3412 0H34.8196Z" fill="var(--fill-0, #393939)"/>
<path d="M38.6859 0H40.397L41.8304 3.69993H41.9203L44.5707 0H46.2818L42.3695 5.24361L41.8509 8.36364H40.3398L40.8585 5.24361L38.6859 0Z" fill="var(--fill-0, #393939)"/>
<path d="M47.4855 8.48615C46.8675 8.48615 46.3529 8.35002 45.9418 8.07777C45.5334 7.80552 45.2462 7.423 45.0801 6.93022C44.914 6.43744 44.8841 5.86571 44.9903 5.21502C45.0965 4.5725 45.3088 4.0103 45.6274 3.52841C45.9486 3.04652 46.3529 2.67353 46.8402 2.40945C47.3303 2.14264 47.8789 2.00923 48.486 2.00923C49.104 2.00923 49.6172 2.14672 50.0256 2.4217C50.434 2.69395 50.7212 3.07647 50.8873 3.56925C51.0561 4.06203 51.0874 4.63648 50.9812 5.29261C50.8778 5.93241 50.664 6.49189 50.3401 6.97106C50.0188 7.45023 49.6145 7.82321 49.1272 8.09002C48.6398 8.35411 48.0926 8.48615 47.4855 8.48615ZM47.608 7.30185C47.951 7.30185 48.2519 7.20928 48.5105 7.02415C48.7719 6.83629 48.9856 6.58446 49.1517 6.26864C49.3205 5.95011 49.4375 5.59618 49.5029 5.20685C49.5628 4.83114 49.5641 4.49083 49.507 4.1859C49.4498 3.87826 49.3273 3.63459 49.1394 3.4549C48.9543 3.27249 48.697 3.18129 48.3676 3.18129C48.0245 3.18129 47.721 3.27657 47.4569 3.46715C47.1955 3.65501 46.9818 3.9082 46.8157 4.22674C46.6497 4.54255 46.5353 4.89512 46.4727 5.28445C46.4101 5.66016 46.4074 6.00047 46.4645 6.3054C46.5217 6.61032 46.6442 6.85263 46.8321 7.03232C47.0199 7.212 47.2786 7.30185 47.608 7.30185Z" fill="var(--fill-0, #393939)"/>
<path d="M56.1646 5.7255L56.7731 2.09091H58.2514L57.206 8.36364H55.7725L55.9604 7.24876H55.8951C55.699 7.59996 55.4186 7.88719 55.0538 8.11044C54.6917 8.33369 54.2752 8.44531 53.8042 8.44531C53.3931 8.44531 53.0459 8.35411 52.7628 8.1717C52.4796 7.98657 52.2782 7.7184 52.1584 7.36719C52.0413 7.01326 52.0236 6.58582 52.1053 6.08487L52.775 2.09091H54.2534L53.6245 5.85618C53.5618 6.25367 53.619 6.56948 53.796 6.80362C53.9757 7.03776 54.2425 7.15483 54.5964 7.15483C54.8142 7.15483 55.0334 7.10174 55.2539 6.99556C55.4772 6.88938 55.6718 6.73148 55.8379 6.52184C56.004 6.30948 56.1129 6.04403 56.1646 5.7255Z" fill="var(--fill-0, #393939)"/>
<path d="M58.7262 8.36364L59.7716 2.09091H61.205L61.0294 3.13636H61.0948C61.2663 2.77427 61.5086 2.49521 61.8217 2.29918C62.1375 2.10044 62.4751 2.00107 62.8345 2.00107C62.9189 2.00107 63.0101 2.00515 63.1081 2.01332C63.2061 2.01876 63.2905 2.02829 63.3613 2.0419L63.1326 3.40181C63.07 3.38003 62.972 3.36097 62.8386 3.34464C62.7079 3.32558 62.5786 3.31605 62.4506 3.31605C62.1811 3.31605 61.9306 3.37459 61.6992 3.49165C61.4705 3.606 61.2772 3.76527 61.1193 3.96946C60.9614 4.17365 60.8593 4.40915 60.813 4.67596L60.2045 8.36364H58.7262Z" fill="var(--fill-0, #393939)"/>
<path d="M66.2148 8.36364L67.6033 0H70.7397C71.3822 0 71.9022 0.119792 72.2997 0.359375C72.6972 0.596236 72.9735 0.924302 73.1287 1.34357C73.2839 1.76012 73.3166 2.2352 73.2267 2.76882C73.1396 3.30516 72.9477 3.78161 72.6509 4.19815C72.3569 4.6147 71.9689 4.94277 71.487 5.18235C71.0051 5.41921 70.4416 5.53764 69.7963 5.53764H67.7177L67.926 4.29208H69.8004C70.1761 4.29208 70.4947 4.22674 70.756 4.09606C71.0201 3.96538 71.2284 3.78569 71.3809 3.557C71.5333 3.3283 71.6341 3.06558 71.6831 2.76882C71.7293 2.47206 71.7144 2.2107 71.6381 1.98473C71.5619 1.75876 71.4135 1.58316 71.193 1.45792C70.9752 1.32996 70.6771 1.26598 70.2987 1.26598H68.9102L67.7299 8.36364H66.2148Z" fill="var(--fill-0, #393939)"/>
<path d="M75.2156 8.49023C74.8181 8.49023 74.4723 8.41945 74.1783 8.27788C73.8842 8.13358 73.6678 7.92122 73.5289 7.6408C73.3928 7.36038 73.3588 7.01462 73.4268 6.60352C73.4867 6.24959 73.6011 5.95691 73.7699 5.7255C73.9414 5.49408 74.151 5.30895 74.3988 5.1701C74.6493 5.02853 74.9215 4.92235 75.2156 4.85156C75.5123 4.78078 75.8145 4.72905 76.1222 4.69638C76.4979 4.65826 76.8014 4.62287 77.0328 4.5902C77.267 4.55753 77.4426 4.50852 77.5597 4.44318C77.6767 4.37512 77.7475 4.27166 77.772 4.13281V4.10831C77.821 3.80066 77.772 3.56244 77.625 3.39364C77.478 3.22485 77.233 3.14045 76.8899 3.14045C76.5305 3.14045 76.2283 3.2194 75.9833 3.37731C75.7383 3.53522 75.56 3.72171 75.4483 3.93679L74.1088 3.74077C74.2776 3.35961 74.5091 3.04107 74.8031 2.78516C75.0971 2.52652 75.4361 2.33321 75.82 2.20526C76.2066 2.07457 76.619 2.00923 77.0574 2.00923C77.3568 2.00923 77.6495 2.04463 77.9354 2.11541C78.224 2.1862 78.4785 2.30327 78.699 2.46662C78.9223 2.62725 79.0856 2.84641 79.1891 3.12411C79.2953 3.40181 79.313 3.74893 79.2422 4.16548L78.5439 8.36364H77.1227L77.2697 7.50195H77.2207C77.1036 7.6762 76.9512 7.83955 76.7633 7.99201C76.5755 8.14175 76.3522 8.2629 76.0936 8.35547C75.8349 8.44531 75.5423 8.49023 75.2156 8.49023ZM75.775 7.40394C76.0718 7.40394 76.3386 7.34541 76.5755 7.22834C76.8123 7.10855 77.007 6.95064 77.1594 6.75462C77.3119 6.55859 77.4072 6.34487 77.4453 6.11346L77.5678 5.37429C77.5134 5.41241 77.429 5.4478 77.3146 5.48047C77.2003 5.51314 77.0723 5.54173 76.9308 5.56623C76.7919 5.59073 76.6544 5.61251 76.5183 5.63157C76.3822 5.65063 76.2651 5.66696 76.1671 5.68058C75.9411 5.71052 75.7342 5.75953 75.5463 5.82759C75.3612 5.89566 75.2074 5.99094 75.0849 6.11346C74.9651 6.23325 74.8902 6.38844 74.8603 6.57901C74.8167 6.84854 74.8807 7.0541 75.0522 7.19567C75.2237 7.33452 75.4647 7.40394 75.775 7.40394Z" fill="var(--fill-0, #393939)"/>
<path d="M80.3407 10.7159C80.1393 10.7159 79.9555 10.6996 79.7894 10.6669C79.6261 10.637 79.4967 10.6016 79.4015 10.5607L79.9405 9.40909C80.1447 9.47171 80.3285 9.49894 80.4918 9.49077C80.6579 9.48532 80.8104 9.42951 80.9492 9.32333C81.0908 9.21987 81.2296 9.04972 81.3658 8.81286L81.5536 8.4739L80.353 2.09091H81.864L82.5174 6.83629H82.5827L84.8248 2.09091H86.4542L82.7828 9.11506C82.6059 9.45537 82.4003 9.74396 82.1662 9.98082C81.9321 10.2204 81.6639 10.4028 81.3617 10.5281C81.0622 10.6533 80.7219 10.7159 80.3407 10.7159Z" fill="var(--fill-0, #393939)"/>
<path d="M86.4358 8.36364L87.4813 2.09091H88.8983L88.7187 3.15678H88.7963C88.9868 2.79741 89.2496 2.51699 89.5844 2.31552C89.9193 2.11133 90.2964 2.00923 90.7156 2.00923C91.1376 2.00923 91.478 2.11269 91.7366 2.3196C91.998 2.52379 92.1586 2.80285 92.2185 3.15678H92.2838C92.4798 2.80558 92.7603 2.52652 93.1251 2.3196C93.4926 2.11269 93.9051 2.00923 94.3625 2.00923C94.9342 2.00923 95.3725 2.19164 95.6775 2.55646C95.9824 2.92128 96.0763 3.45354 95.9593 4.15323L95.2568 8.36364H93.7785L94.4482 4.38192C94.5081 3.9926 94.4482 3.7081 94.2686 3.52841C94.0916 3.346 93.8534 3.25479 93.5539 3.25479C93.1972 3.25479 92.9005 3.36506 92.6636 3.58558C92.4295 3.80611 92.2852 4.0947 92.2307 4.45135L91.5732 8.36364H90.1235L90.8014 4.32067C90.8504 3.99669 90.7932 3.73804 90.6299 3.54474C90.4693 3.35144 90.2324 3.25479 89.9193 3.25479C89.7069 3.25479 89.5041 3.30924 89.3108 3.41815C89.1175 3.52705 88.9528 3.67951 88.8167 3.87553C88.6833 4.06883 88.5961 4.29344 88.5553 4.54936L87.9182 8.36364H86.4358Z" fill="var(--fill-0, #393939)"/>
<path d="M99.5132 8.48615C98.8843 8.48615 98.3643 8.35547 97.9532 8.09411C97.5421 7.83002 97.2535 7.45703 97.0874 6.97514C96.9241 6.49053 96.8968 5.92016 97.0057 5.26403C97.1119 4.61879 97.3283 4.0525 97.6551 3.56516C97.9818 3.07511 98.3901 2.69395 98.8802 2.4217C99.373 2.14672 99.9175 2.00923 100.514 2.00923C100.9 2.00923 101.256 2.07185 101.58 2.19709C101.904 2.3196 102.177 2.51018 102.4 2.76882C102.624 3.02746 102.778 3.35689 102.862 3.7571C102.946 4.15459 102.942 4.62831 102.85 5.17827L102.78 5.63157H97.6346L97.7939 4.63512H101.518C101.567 4.35198 101.551 4.10014 101.469 3.87962C101.388 3.65637 101.252 3.48076 101.061 3.35281C100.87 3.22485 100.632 3.16087 100.346 3.16087C100.055 3.16087 99.7827 3.23574 99.5295 3.38548C99.279 3.53249 99.0681 3.72307 98.8965 3.95721C98.725 4.19135 98.6161 4.43774 98.5698 4.69638L98.4024 5.65199C98.3425 6.04403 98.3561 6.36393 98.4432 6.61168C98.5304 6.85943 98.6828 7.04184 98.9006 7.15891C99.1184 7.27598 99.3934 7.33452 99.7255 7.33452C99.9433 7.33452 100.145 7.30457 100.33 7.24467C100.515 7.18478 100.68 7.09493 100.824 6.97514C100.971 6.85263 101.094 6.70289 101.192 6.52592L102.543 6.68111C102.394 7.04593 102.174 7.36447 101.886 7.63672C101.597 7.90625 101.252 8.11589 100.849 8.26562C100.448 8.41264 100.003 8.48615 99.5132 8.48615Z" fill="var(--fill-0, #393939)"/>
<path d="M105.672 4.68821L105.067 8.36364H103.585L104.63 2.09091H106.047L105.868 3.15678H105.945C106.141 2.80558 106.416 2.52652 106.77 2.3196C107.124 2.11269 107.537 2.00923 108.007 2.00923C108.435 2.00923 108.794 2.1018 109.086 2.28693C109.377 2.46934 109.584 2.73751 109.706 3.09144C109.829 3.44265 109.848 3.86873 109.764 4.36967L109.094 8.36364H107.615L108.24 4.59837C108.311 4.18182 108.258 3.85511 108.081 3.61825C107.907 3.37867 107.626 3.25888 107.24 3.25888C106.981 3.25888 106.743 3.31605 106.525 3.4304C106.307 3.54202 106.124 3.70401 105.974 3.91637C105.827 4.12873 105.726 4.38601 105.672 4.68821Z" fill="var(--fill-0, #393939)"/>
<path d="M114.766 2.09091L114.574 3.23438H110.972L111.16 2.09091H114.766ZM112.296 0.588068H113.774L112.794 6.47692C112.764 6.67566 112.769 6.82813 112.81 6.9343C112.854 7.03776 112.923 7.10855 113.018 7.14666C113.116 7.18478 113.227 7.20384 113.349 7.20384C113.439 7.20384 113.523 7.19703 113.602 7.18342C113.681 7.16708 113.744 7.15483 113.79 7.14666L113.856 8.30238C113.766 8.3296 113.645 8.35955 113.492 8.39222C113.342 8.42489 113.163 8.44395 112.953 8.4494C112.577 8.45756 112.251 8.40039 111.973 8.27788C111.698 8.15264 111.496 7.9607 111.368 7.70206C111.243 7.4407 111.215 7.11399 111.283 6.72195L112.296 0.588068Z" fill="var(--fill-0, #393939)"/>
<path d="M120.589 3.74893L119.229 3.89595C119.215 3.7571 119.173 3.62778 119.102 3.50799C119.031 3.3882 118.925 3.29291 118.784 3.22212C118.645 3.14862 118.465 3.11186 118.245 3.11186C117.923 3.11186 117.642 3.18401 117.399 3.3283C117.157 3.4726 117.019 3.65773 116.987 3.8837C116.957 4.0525 116.998 4.18999 117.109 4.29616C117.221 4.40234 117.428 4.49219 117.73 4.5657L118.767 4.79439C119.339 4.92235 119.75 5.12926 120.001 5.41513C120.254 5.70099 120.342 6.07534 120.266 6.53818C120.201 6.92478 120.032 7.26509 119.76 7.55913C119.487 7.85044 119.139 8.07777 118.714 8.24112C118.292 8.40447 117.824 8.48615 117.309 8.48615C116.528 8.48615 115.926 8.32416 115.504 8.00018C115.085 7.67347 114.877 7.22425 114.88 6.65252L116.333 6.51367C116.35 6.79682 116.449 7.01054 116.631 7.15483C116.814 7.2964 117.067 7.36855 117.391 7.37127C117.756 7.37399 118.064 7.29776 118.314 7.14258C118.567 6.98467 118.71 6.79273 118.743 6.56676C118.77 6.39796 118.728 6.26048 118.616 6.1543C118.507 6.04812 118.313 5.96372 118.032 5.9011L117.003 5.67649C116.42 5.54853 116.005 5.33209 115.758 5.02717C115.513 4.71952 115.429 4.33156 115.508 3.86328C115.574 3.48213 115.733 3.15406 115.986 2.87908C116.242 2.60138 116.57 2.38767 116.97 2.23793C117.371 2.08546 117.819 2.00923 118.314 2.00923C119.06 2.00923 119.622 2.16578 120.001 2.47887C120.379 2.79196 120.575 3.21532 120.589 3.74893Z" fill="var(--fill-0, #393939)"/>
</g>
</g>
</svg>
