<svg preserveAspectRatio="none" width="100%" height="100%" overflow="visible" style="display: block;" viewBox="0 0 125.51 23.8945" fill="none" xmlns="http://www.w3.org/2000/svg">
<g id="Group 1686552119">
<path id="Vector" d="M12.4197 4.39238L0 4.45274L20.5752 0L10.2223 18.6123L121.4 20.2675L1.93744 23.8943L12.4197 4.39238Z" fill="var(--fill-0, #CE1B22)"/>
<g id="APP">
<path d="M15.0947 17.1467L21.885 2.92877H25.4295L26.1663 17.1467H23.1793L23.1594 14.1398H19.376L18.0816 17.1467H15.0947ZM23.0997 5.39799L20.3716 11.7901H23.1594L23.1395 5.39799H23.0997Z" fill="var(--fill-0, #CE1B22)"/>
<path d="M26.9561 17.1467L29.9829 2.92877H35.001C37.9083 2.92877 38.4459 5.05946 37.9879 7.19016C37.3706 10.1373 35.2798 11.4715 32.5716 11.4715H31.0383L29.8236 17.1467H26.9561ZM32.3924 5.03955L31.4764 9.36068H32.7508C33.8859 9.36068 34.8019 8.68363 35.1205 7.22998C35.4192 5.83607 35.0209 5.03955 33.5872 5.03955H32.3924Z" fill="var(--fill-0, #CE1B22)"/>
<path d="M37.083 17.1467L40.1098 2.92877H45.1279C48.0352 2.92877 48.5728 5.05946 48.1148 7.19016C47.4975 10.1373 45.4066 11.4715 42.6985 11.4715H41.1652L39.9505 17.1467H37.083ZM42.5192 5.03955L41.6032 9.36068H42.8777C44.0127 9.36068 44.9287 8.68363 45.2473 7.22998C45.546 5.83607 45.1478 5.03955 43.714 5.03955H42.5192Z" fill="var(--fill-0, #CE1B22)"/>
</g>
<g id="ACCOUNT">
<path d="M49.8832 17.1467L56.6736 2.92877H60.2181L60.9549 17.1467H57.9679L57.948 14.1398H54.1645L52.8702 17.1467H49.8832ZM57.8883 5.39799L55.1602 11.7901H57.948L57.9281 5.39799H57.8883Z" fill="var(--fill-0, #0F4C8B)"/>
<path d="M72.4977 7.72781H69.6302C70.0683 5.65686 69.8294 4.76077 68.535 4.76077C67.0814 4.76077 66.4442 6.21442 65.5879 10.2369C64.6719 14.5381 65.11 15.3147 66.3446 15.3147C67.3801 15.3147 68.2363 14.777 68.8935 11.7104H71.7609C71.1038 14.777 69.7896 17.4255 66.026 17.4255C61.7248 17.4255 61.8443 14.3588 62.7603 10.0377C63.6763 5.71659 64.871 2.64999 69.1722 2.64999C73.2743 2.64999 72.9358 5.65686 72.4977 7.72781Z" fill="var(--fill-0, #0F4C8B)"/>
<path d="M82.7949 7.72781H79.9275C80.3655 5.65686 80.1266 4.76077 78.8322 4.76077C77.3786 4.76077 76.7414 6.21442 75.8851 10.2369C74.9691 14.5381 75.4072 15.3147 76.6418 15.3147C77.6773 15.3147 78.5335 14.777 79.1907 11.7104H82.0582C81.401 14.777 80.0868 17.4255 76.3232 17.4255C72.022 17.4255 72.1415 14.3588 73.0575 10.0377C73.9735 5.71659 75.1682 2.64999 79.4695 2.64999C83.5715 2.64999 83.233 5.65686 82.7949 7.72781Z" fill="var(--fill-0, #0F4C8B)"/>
<path d="M83.3547 10.0377C84.2707 5.71659 85.4655 2.64999 89.7667 2.64999C94.0679 2.64999 93.9484 5.71659 93.0324 10.0377C92.1164 14.3588 90.9216 17.4255 86.6204 17.4255C82.3192 17.4255 82.4387 14.3588 83.3547 10.0377ZM86.2221 10.0377C85.4057 13.861 85.3858 15.3147 87.0784 15.3147C88.771 15.3147 89.3485 13.861 90.1649 10.0377C90.9614 6.23433 91.0013 4.76077 89.3087 4.76077C87.6161 4.76077 87.0187 6.23433 86.2221 10.0377Z" fill="var(--fill-0, #0F4C8B)"/>
<path d="M95.6542 2.92877H98.5217L96.4109 12.8455C96.1122 14.2593 96.2317 15.3147 97.5659 15.3147C98.9001 15.3147 99.4576 14.2593 99.7563 12.8455L101.867 2.92877H104.735L102.624 12.8455C101.847 16.4696 99.4377 17.4255 97.1079 17.4255C94.7781 17.4255 92.727 16.6488 93.5435 12.8455L95.6542 2.92877Z" fill="var(--fill-0, #0F4C8B)"/>
<path d="M106.15 2.92877H109.456L110.85 12.6662H110.889L112.96 2.92877H115.589L112.562 17.1467H109.296L107.902 7.19016H107.863L105.752 17.1467H103.123L106.15 2.92877Z" fill="var(--fill-0, #0F4C8B)"/>
<path d="M116.43 2.92877H125.51L125.012 5.27851H121.906L119.377 17.1467H116.509L119.038 5.27851H115.932L116.43 2.92877Z" fill="var(--fill-0, #0F4C8B)"/>
</g>
</g>
</svg>
